<?xml version="1.0" encoding="UTF-8"?>
<svg width="269px" height="269px" viewBox="0 0 269 269" version="1.1" xmlns="http://www.w3.org/2000/svg" xmlns:xlink="http://www.w3.org/1999/xlink">
    <!-- Generator: Sketch 43.2 (39069) - http://www.bohemiancoding.com/sketch -->
    <title>OpenCollective-Icon</title>
    <desc>Created with Sketch.</desc>
    <defs></defs>
    <g id="Page-1" stroke="none" stroke-width="1" fill="none" fill-rule="evenodd">
        <g id="OpenCollective-Icon">
            <path d="M245.069084,57.8972955 C260.157325,79.6348071 269,106.034745 269,134.5 C269,162.965255 260.157325,189.365193 245.069084,211.102704 L210.228298,176.261919 C217.070075,163.881917 220.964286,149.645729 220.964286,134.5 C220.964286,119.354271 217.070075,105.118083 210.228298,92.7380808 L245.069084,57.8972955 Z M211.102704,23.9309162 L176.261919,58.7717015 C163.881917,51.9299246 149.645729,48.0357143 134.5,48.0357143 C86.7470936,48.0357143 48.0357143,86.7470936 48.0357143,134.5 C48.0357143,182.252906 86.7470936,220.964286 134.5,220.964286 C149.645729,220.964286 163.881917,217.070075 176.261919,210.228298 L211.102704,245.069084 C189.365193,260.157325 162.965255,269 134.5,269 C60.2177012,269 0,208.782299 0,134.5 C0,60.2177012 60.2177012,0 134.5,0 C162.965255,0 189.365193,8.84267501 211.102704,23.9309162 Z" id="Combined-Shape-Copy-2" fill="#7FADF2"></path>
            <path d="M245.069084,57.8972955 C260.157325,79.6348071 269,106.034745 269,134.5 C269,162.965255 260.157325,189.365193 245.069084,211.102704 L210.228298,176.261919 C217.070075,163.881917 220.964286,149.645729 220.964286,134.5 C220.964286,119.354271 217.070075,105.118083 210.228298,92.7380808 L245.069084,57.8972955 Z" id="closing-o" fill="#B8D3F4"></path>
        </g>
    </g>
</svg>