<svg width="675" height="144" viewBox="0 0 675 144" fill="none" xmlns="http://www.w3.org/2000/svg">
<path d="M252.353 127.748C253.61 128.213 254.731 129.033 255.715 130.208C256.699 131.383 257.191 132.914 257.191 134.8C257.191 136.303 256.795 137.684 256.002 138.941C255.209 140.198 254.089 141.196 252.64 141.934C251.219 142.645 249.606 143 247.802 143H235.133V114.3H247.31C249.005 114.3 250.508 114.642 251.82 115.325C253.159 116.008 254.198 116.938 254.936 118.113C255.674 119.261 256.043 120.546 256.043 121.967C256.043 123.498 255.674 124.755 254.936 125.739C254.198 126.723 253.337 127.393 252.353 127.748ZM240.996 119.302V125.657H246.613C247.652 125.657 248.499 125.356 249.155 124.755C249.838 124.154 250.18 123.388 250.18 122.459C250.18 121.557 249.838 120.805 249.155 120.204C248.472 119.603 247.624 119.302 246.613 119.302H240.996ZM247.146 137.998C248.376 137.998 249.374 137.656 250.139 136.973C250.932 136.262 251.328 135.347 251.328 134.226C251.328 133.133 250.932 132.244 250.139 131.561C249.374 130.85 248.376 130.495 247.146 130.495H240.996V137.998H247.146ZM278.374 143L272.634 132.668H268.821V143H262.958V114.3H274.602C276.434 114.3 278.087 114.696 279.563 115.489C281.039 116.282 282.201 117.389 283.048 118.81C283.896 120.204 284.319 121.789 284.319 123.566C284.319 125.397 283.786 127.051 282.72 128.527C281.654 129.976 280.206 131.055 278.374 131.766L285.139 143H278.374ZM268.821 119.876V127.338H274.438C275.586 127.338 276.543 126.996 277.308 126.313C278.074 125.602 278.456 124.7 278.456 123.607C278.456 122.514 278.074 121.625 277.308 120.942C276.543 120.231 275.586 119.876 274.438 119.876H268.821ZM302.021 143.533C299.752 143.533 297.73 143.027 295.953 142.016C294.204 141.005 292.851 139.624 291.894 137.875C290.937 136.098 290.459 134.13 290.459 131.971V114.3H296.322V131.971C296.322 133.693 296.828 135.114 297.839 136.235C298.85 137.328 300.244 137.875 302.021 137.875C303.798 137.875 305.192 137.328 306.203 136.235C307.214 135.114 307.72 133.693 307.72 131.971V114.3H313.583V131.971C313.583 134.13 313.105 136.098 312.148 137.875C311.191 139.624 309.825 141.005 308.048 142.016C306.299 143.027 304.29 143.533 302.021 143.533ZM330.202 143.533C328.015 143.533 326.102 143.123 324.462 142.303C322.849 141.456 321.578 140.308 320.649 138.859C319.747 137.41 319.255 135.77 319.173 133.939H325.036C325.2 135.224 325.719 136.276 326.594 137.096C327.468 137.889 328.671 138.285 330.202 138.285C331.65 138.285 332.744 137.998 333.482 137.424C334.247 136.85 334.63 136.139 334.63 135.292C334.63 134.581 334.384 133.98 333.892 133.488C333.4 132.996 332.785 132.6 332.047 132.299C331.309 131.971 330.284 131.588 328.972 131.151C327.058 130.522 325.487 129.907 324.257 129.306C323.054 128.677 322.015 127.789 321.141 126.641C320.266 125.466 319.829 123.949 319.829 122.09C319.829 120.505 320.225 119.083 321.018 117.826C321.81 116.569 322.958 115.585 324.462 114.874C325.992 114.136 327.783 113.767 329.833 113.767C331.801 113.767 333.55 114.177 335.081 114.997C336.611 115.817 337.814 116.938 338.689 118.359C339.563 119.78 340.042 121.366 340.124 123.115H334.261C334.179 121.912 333.741 120.928 332.949 120.163C332.156 119.398 331.117 119.015 329.833 119.015C328.521 119.015 327.496 119.316 326.758 119.917C326.047 120.491 325.692 121.243 325.692 122.172C325.692 122.883 325.938 123.484 326.43 123.976C326.922 124.468 327.523 124.864 328.234 125.165C328.972 125.466 330.01 125.835 331.35 126.272C333.236 126.873 334.794 127.475 336.024 128.076C337.254 128.65 338.306 129.511 339.181 130.659C340.055 131.78 340.493 133.256 340.493 135.087C340.493 136.7 340.083 138.148 339.263 139.433C338.47 140.69 337.295 141.688 335.737 142.426C334.179 143.164 332.334 143.533 330.202 143.533ZM355.905 143.533C353.718 143.533 351.805 143.123 350.165 142.303C348.552 141.456 347.281 140.308 346.352 138.859C345.45 137.41 344.958 135.77 344.876 133.939H350.739C350.903 135.224 351.422 136.276 352.297 137.096C353.172 137.889 354.374 138.285 355.905 138.285C357.354 138.285 358.447 137.998 359.185 137.424C359.95 136.85 360.333 136.139 360.333 135.292C360.333 134.581 360.087 133.98 359.595 133.488C359.103 132.996 358.488 132.6 357.75 132.299C357.012 131.971 355.987 131.588 354.675 131.151C352.762 130.522 351.19 129.907 349.96 129.306C348.757 128.677 347.719 127.789 346.844 126.641C345.969 125.466 345.532 123.949 345.532 122.09C345.532 120.505 345.928 119.083 346.721 117.826C347.514 116.569 348.662 115.585 350.165 114.874C351.696 114.136 353.486 113.767 355.536 113.767C357.504 113.767 359.253 114.177 360.784 114.997C362.315 115.817 363.517 116.938 364.392 118.359C365.267 119.78 365.745 121.366 365.827 123.115H359.964C359.882 121.912 359.445 120.928 358.652 120.163C357.859 119.398 356.821 119.015 355.536 119.015C354.224 119.015 353.199 119.316 352.461 119.917C351.75 120.491 351.395 121.243 351.395 122.172C351.395 122.883 351.641 123.484 352.133 123.976C352.625 124.468 353.226 124.864 353.937 125.165C354.675 125.466 355.714 125.835 357.053 126.272C358.939 126.873 360.497 127.475 361.727 128.076C362.957 128.65 364.009 129.511 364.884 130.659C365.759 131.78 366.196 133.256 366.196 135.087C366.196 136.7 365.786 138.148 364.966 139.433C364.173 140.69 362.998 141.688 361.44 142.426C359.882 143.164 358.037 143.533 355.905 143.533ZM378.042 131.069V137.424H392.228V143H372.179V114.3H391.818V119.876H378.042V125.657H390.26V131.069H378.042ZM417.43 143H398.242V114.3H404.105V137.342H417.43V143ZM430.974 143.533C428.787 143.533 426.874 143.123 425.234 142.303C423.621 141.456 422.35 140.308 421.421 138.859C420.519 137.41 420.027 135.77 419.945 133.939H425.808C425.972 135.224 426.491 136.276 427.366 137.096C428.24 137.889 429.443 138.285 430.974 138.285C432.422 138.285 433.516 137.998 434.254 137.424C435.019 136.85 435.402 136.139 435.402 135.292C435.402 134.581 435.156 133.98 434.664 133.488C434.172 132.996 433.557 132.6 432.819 132.299C432.081 131.971 431.056 131.588 429.744 131.151C427.83 130.522 426.259 129.907 425.029 129.306C423.826 128.677 422.787 127.789 421.913 126.641C421.038 125.466 420.601 123.949 420.601 122.09C420.601 120.505 420.997 119.083 421.79 117.826C422.582 116.569 423.73 115.585 425.234 114.874C426.764 114.136 428.555 113.767 430.605 113.767C432.573 113.767 434.322 114.177 435.853 114.997C437.383 115.817 438.586 116.938 439.461 118.359C440.335 119.78 440.814 121.366 440.896 123.115H435.033C434.951 121.912 434.513 120.928 433.721 120.163C432.928 119.398 431.889 119.015 430.605 119.015C429.293 119.015 428.268 119.316 427.53 119.917C426.819 120.491 426.464 121.243 426.464 122.172C426.464 122.883 426.71 123.484 427.202 123.976C427.694 124.468 428.295 124.864 429.006 125.165C429.744 125.466 430.782 125.835 432.122 126.272C434.008 126.873 435.566 127.475 436.796 128.076C438.026 128.65 439.078 129.511 439.953 130.659C440.827 131.78 441.265 133.256 441.265 135.087C441.265 136.7 440.855 138.148 440.035 139.433C439.242 140.69 438.067 141.688 436.509 142.426C434.951 143.164 433.106 143.533 430.974 143.533Z" fill="#001309"/>
<path d="M506 85.4134V14H522.119V38.1785H522.629C523.513 36.8863 525.214 35.526 527.73 34.0978C530.247 32.6695 533.137 31.9554 536.402 31.9554C540.142 31.9554 543.509 32.9075 546.502 34.8119C549.562 36.6483 551.943 39.2667 553.643 42.6674C555.343 46.068 556.193 49.9787 556.193 54.3996V85.4134H540.074V56.44C540.074 53.7875 539.224 51.543 537.524 49.7067C535.824 47.8023 533.681 46.8502 531.097 46.8502C528.512 46.8502 526.37 47.8023 524.669 49.7067C522.969 51.543 522.119 53.7875 522.119 56.44V85.4134H506Z" fill="#001309"/>
<path d="M583.009 86.8417C578.86 86.8417 575.187 85.9235 571.99 84.0871C568.862 82.1828 566.413 79.5643 564.645 76.2317C562.945 72.831 562.095 68.8863 562.095 64.3975V33.3836H578.214V62.3571C578.214 65.0776 579.064 67.356 580.764 69.1924C582.532 71.0287 584.675 71.9469 587.191 71.9469C589.776 71.9469 591.918 71.0287 593.619 69.1924C595.319 67.356 596.169 65.0776 596.169 62.3571V33.3836H612.288V85.4134H600.454L598.005 80.3124H597.495C596.407 81.7407 594.571 83.203 591.986 84.6993C589.402 86.1275 586.409 86.8417 583.009 86.8417Z" fill="#001309"/>
<path d="M650.619 86.8417C647.219 86.8417 644.192 86.1615 641.54 84.8013C638.887 83.441 636.881 81.9447 635.521 80.3124H635.01L632.664 85.4134H620.728V14H636.847V37.5664H637.357C638.173 36.3422 639.771 35.118 642.152 33.8937C644.6 32.6015 647.423 31.9554 650.619 31.9554C654.768 31.9554 658.679 33.1456 662.352 35.526C666.024 37.9065 668.949 41.2051 671.125 45.4219C673.37 49.5707 674.492 54.2295 674.492 59.3985C674.492 64.5675 673.37 69.2604 671.125 73.4772C668.949 77.6259 666.024 80.8905 662.352 83.271C658.679 85.6514 654.768 86.8417 650.619 86.8417ZM647.661 72.2529C650.653 72.2529 653.17 71.0627 655.21 68.6823C657.319 66.2338 658.373 63.1392 658.373 59.3985C658.373 55.6578 657.319 52.5972 655.21 50.2168C653.17 47.7683 650.653 46.5441 647.661 46.5441C644.668 46.5441 642.118 47.7683 640.009 50.2168C637.901 52.6653 636.847 55.7258 636.847 59.3985C636.847 63.0712 637.901 66.1318 640.009 68.5802C642.118 71.0287 644.668 72.2529 647.661 72.2529Z" fill="#001309"/>
<path d="M27.2391 84.8863C22.3422 84.8863 17.7853 83.6621 13.5685 81.2136C9.41977 78.6971 6.12115 75.3305 3.67269 71.1137C1.22423 66.8969 0 62.3401 0 57.4431C0 52.5462 1.22423 47.9894 3.67269 43.7726C6.12115 39.5558 9.41977 36.2232 13.5685 33.7747C17.7853 31.2582 22.3422 30 27.2391 30C32.136 30 36.4208 31.0882 40.0935 33.2646C43.7662 35.441 46.6567 38.1615 48.7651 41.4261C50.9416 44.6908 52.3358 47.9214 52.9479 51.118L37.0329 51.9341C36.5569 50.3018 35.4346 48.6695 33.6663 47.0372C31.966 45.4049 29.8236 44.5887 27.2391 44.5887C24.0425 44.5887 21.39 45.813 19.2816 48.2614C17.1732 50.6419 16.119 53.7024 16.119 57.4431C16.119 61.1839 17.1732 64.2784 19.2816 66.7269C21.39 69.1073 24.0425 70.2976 27.2391 70.2976C29.8236 70.2976 31.966 69.4814 33.6663 67.8491C35.4346 66.2168 36.5569 64.5845 37.0329 62.9522L52.9479 63.7683C52.3358 66.9649 50.9416 70.1955 48.7651 73.4602C46.6567 76.7248 43.7662 79.4453 40.0935 81.6217C36.4208 83.7981 32.136 84.8863 27.2391 84.8863Z" fill="#001309"/>
<path d="M82.9615 84.8863C77.9965 84.8863 73.4057 83.6621 69.1889 81.2136C65.0401 78.6971 61.7415 75.3305 59.293 71.1137C56.8446 66.8969 55.6203 62.3401 55.6203 57.4431C55.6203 52.5462 56.8446 47.9894 59.293 43.7726C61.7415 39.5558 65.0401 36.2232 69.1889 33.7747C73.4057 31.2582 77.9965 30 82.9615 30C87.8584 30 92.3812 31.2582 96.53 33.7747C100.747 36.2232 104.079 39.5558 106.528 43.7726C109.044 47.9894 110.303 52.5462 110.303 57.4431C110.303 62.3401 109.044 66.8969 106.528 71.1137C104.079 75.3305 100.747 78.6971 96.53 81.2136C92.3812 83.6621 87.8584 84.8863 82.9615 84.8863ZM82.9615 70.2976C86.1581 70.2976 88.8106 69.0733 90.919 66.6249C93.0954 64.1764 94.1836 61.1158 94.1836 57.4431C94.1836 53.7705 93.0954 50.7099 90.919 48.2614C88.8106 45.813 86.1581 44.5887 82.9615 44.5887C79.7649 44.5887 77.0784 45.813 74.902 48.2614C72.7936 50.6419 71.7394 53.7024 71.7394 57.4431C71.7394 61.1839 72.7936 64.2784 74.902 66.7269C77.0784 69.1073 79.7649 70.2976 82.9615 70.2976Z" fill="#001309"/>
<path d="M173.213 30C178.926 30 183.483 31.9044 186.884 35.7131C190.285 39.5218 191.985 44.7928 191.985 51.526V83.458H175.866V53.2604C175.866 50.7439 175.186 48.7375 173.825 47.2412C172.533 45.6769 170.901 44.8948 168.929 44.8948C166.956 44.8948 165.29 45.6769 163.93 47.2412C162.637 48.7375 161.991 50.7439 161.991 53.2604V83.458H145.872V53.2604C145.872 50.7439 145.192 48.7375 143.832 47.2412C142.54 45.6769 140.907 44.8948 138.935 44.8948C136.963 44.8948 135.296 45.6769 133.936 47.2412C132.644 48.7375 131.998 50.7439 131.998 53.2604V83.458H115.879V31.4283H127.815L130.161 36.5292H130.671C131.828 34.9649 133.494 33.5027 135.67 32.1424C137.847 30.7141 140.499 30 143.628 30C147.232 30 150.225 30.7141 152.605 32.1424C154.986 33.5707 156.754 35.203 157.91 37.0393C159.339 35.203 161.379 33.5707 164.032 32.1424C166.752 30.7141 169.813 30 173.213 30Z" fill="#001309"/>
<path d="M284.768 84.8863C279.803 84.8863 275.212 83.6621 270.995 81.2136C266.847 78.6971 263.548 75.3305 261.099 71.1137C258.651 66.8969 257.427 62.3401 257.427 57.4431C257.427 52.5462 258.651 47.9894 261.099 43.7726C263.548 39.5558 266.847 36.2232 270.995 33.7747C275.212 31.2582 279.803 30 284.768 30C289.665 30 294.188 31.2582 298.336 33.7747C302.553 36.2232 305.886 39.5558 308.334 43.7726C310.851 47.9894 312.109 52.5462 312.109 57.4431C312.109 62.3401 310.851 66.8969 308.334 71.1137C305.886 75.3305 302.553 78.6971 298.336 81.2136C294.188 83.6621 289.665 84.8863 284.768 84.8863ZM284.768 70.2976C287.964 70.2976 290.617 69.0733 292.725 66.6249C294.902 64.1764 295.99 61.1158 295.99 57.4431C295.99 53.7705 294.902 50.7099 292.725 48.2614C290.617 45.813 287.964 44.5887 284.768 44.5887C281.571 44.5887 278.885 45.813 276.708 48.2614C274.6 50.6419 273.546 53.7024 273.546 57.4431C273.546 61.1839 274.6 64.2784 276.708 66.7269C278.885 69.1073 281.571 70.2976 284.768 70.2976Z" fill="#001309"/>
<path d="M317.685 83.458V31.4283H329.621L331.968 36.5292H332.478C333.566 35.101 335.402 33.6727 337.987 32.2444C340.571 30.7481 343.598 30 347.066 30C351.147 30 354.752 30.9522 357.881 32.8565C361.077 34.6929 363.526 37.3114 365.226 40.712C366.994 44.0446 367.878 47.9554 367.878 52.4442V83.458H351.759V54.4846C351.759 51.7641 350.909 49.4857 349.209 47.6493C347.509 45.813 345.366 44.8948 342.782 44.8948C340.197 44.8948 338.055 45.813 336.354 47.6493C334.654 49.4857 333.804 51.7641 333.804 54.4846V83.458H317.685Z" fill="#001309"/>
<path d="M394.477 84.8863C390.057 84.8863 386.214 84.1382 382.949 82.6419C379.685 81.0776 377.134 78.9692 375.298 76.3167C373.462 73.5962 372.407 70.5356 372.135 67.135L387.54 66.4208C387.744 68.2572 388.458 69.7195 389.683 70.8077C390.975 71.8959 392.573 72.44 394.477 72.44C396.246 72.44 397.606 72.0659 398.558 71.3177C399.578 70.5696 400.089 69.6514 400.089 68.5632C400.089 67.067 399.306 65.8767 397.742 64.9926C396.178 64.1084 393.763 63.1222 390.499 62.034C386.962 60.8778 384.038 59.7556 381.725 58.6674C379.413 57.5112 377.406 55.8789 375.706 53.7705C374.074 51.6621 373.258 48.9756 373.258 45.711C373.258 42.7864 374.04 40.1339 375.604 37.7535C377.236 35.373 379.617 33.5027 382.745 32.1424C385.942 30.7141 389.751 30 394.171 30C398.32 30 401.959 30.7481 405.087 32.2444C408.216 33.7407 410.665 35.8151 412.433 38.4676C414.269 41.0521 415.323 43.9766 415.595 47.2412L400.191 47.8533C399.578 44.2487 397.606 42.4463 394.273 42.4463C392.709 42.4463 391.485 42.7864 390.601 43.4665C389.785 44.1467 389.377 44.9628 389.377 45.915C389.377 47.2752 390.091 48.3294 391.519 49.0776C392.947 49.8257 395.294 50.7099 398.558 51.7301C402.095 52.7503 405.053 53.8045 407.434 54.8927C409.814 55.9809 411.855 57.6132 413.555 59.7896C415.323 61.898 416.208 64.6865 416.208 68.1552C416.208 73.1201 414.303 77.1668 410.494 80.2954C406.754 83.356 401.415 84.8863 394.477 84.8863Z" fill="#001309"/>
<path d="M233.155 30C238.868 30 243.425 31.9044 246.826 35.7131C250.226 39.5218 251.927 44.7928 251.927 51.526V83.458H235.808V53.2604C235.808 50.7439 235.128 48.7375 233.767 47.2412C232.475 45.6769 230.843 44.8948 228.87 44.8948C226.898 44.8948 225.232 45.6769 223.871 47.2412C222.579 48.7375 221.933 50.7439 221.933 53.2604V83.458H205.814V53.2604C205.814 50.7439 205.134 48.7375 203.774 47.2412C202.481 45.6769 200.849 44.8948 198.877 44.8948C196.904 44.8948 195.238 45.6769 193.878 47.2412C192.586 48.7375 191.94 50.7439 191.94 53.2604V83.458L189.265 39.1154L190.613 36.5292C191.769 34.9649 193.436 33.5027 195.612 32.1424C197.789 30.7141 200.441 30 203.57 30C207.174 30 210.167 30.7141 212.547 32.1424C214.928 33.5707 216.696 35.203 217.852 37.0393C219.281 35.203 221.321 33.5707 223.974 32.1424C226.694 30.7141 229.755 30 233.155 30Z" fill="#001309"/>
<path d="M451.871 0L435.535 9.50495L449.644 25.2475L429 20.7921V39.802L449.644 35.6436L435.535 50.495L451.871 60L458.777 40.0169L465.683 60L482.02 50.495L467.911 35.6436L488.554 39.802V20.7921L467.911 25.2475L482.02 9.50495L465.683 0L458.777 18.6607L451.871 0Z" fill="#FF4C02"/>
</svg>
