<svg width="847" height="400" viewBox="0 0 847 400" fill="none" xmlns="http://www.w3.org/2000/svg">
<path d="M347.505 391.332C346.661 391.332 345.937 391.034 345.332 390.438C344.735 389.832 344.437 389.108 344.437 388.264C344.437 387.429 344.735 386.713 345.332 386.116C345.937 385.52 346.661 385.222 347.505 385.222C348.323 385.222 349.039 385.52 349.653 386.116C350.266 386.713 350.573 387.429 350.573 388.264C350.573 388.827 350.428 389.342 350.138 389.811C349.857 390.271 349.487 390.642 349.026 390.923C348.566 391.196 348.059 391.332 347.505 391.332ZM355.147 391V364.818H360.593V374.662H360.759C360.998 374.134 361.343 373.597 361.794 373.051C362.255 372.497 362.851 372.037 363.584 371.67C364.326 371.295 365.246 371.108 366.346 371.108C367.777 371.108 369.098 371.483 370.309 372.233C371.519 372.974 372.486 374.095 373.211 375.595C373.935 377.087 374.297 378.957 374.297 381.207C374.297 383.398 373.944 385.247 373.236 386.756C372.537 388.256 371.583 389.393 370.373 390.169C369.171 390.936 367.824 391.32 366.333 391.32C365.276 391.32 364.377 391.145 363.635 390.795C362.902 390.446 362.301 390.007 361.833 389.479C361.364 388.942 361.006 388.401 360.759 387.855H360.516V391H355.147ZM360.478 381.182C360.478 382.349 360.64 383.368 360.963 384.237C361.287 385.107 361.756 385.784 362.37 386.27C362.983 386.747 363.729 386.986 364.607 386.986C365.493 386.986 366.243 386.743 366.857 386.257C367.471 385.763 367.935 385.081 368.25 384.212C368.574 383.334 368.736 382.324 368.736 381.182C368.736 380.048 368.578 379.051 368.263 378.19C367.948 377.33 367.483 376.656 366.87 376.17C366.256 375.685 365.502 375.442 364.607 375.442C363.721 375.442 362.971 375.676 362.357 376.145C361.752 376.614 361.287 377.278 360.963 378.139C360.64 379 360.478 380.014 360.478 381.182ZM377.931 391V371.364H383.211V374.79H383.415C383.773 373.571 384.374 372.651 385.218 372.028C386.062 371.398 387.033 371.082 388.133 371.082C388.406 371.082 388.7 371.099 389.015 371.134C389.33 371.168 389.607 371.214 389.846 371.274V376.107C389.59 376.03 389.237 375.962 388.785 375.902C388.333 375.842 387.92 375.812 387.545 375.812C386.744 375.812 386.028 375.987 385.397 376.337C384.775 376.678 384.281 377.155 383.914 377.768C383.556 378.382 383.377 379.089 383.377 379.891V391H377.931ZM405.254 382.639V371.364H410.7V391H405.471V387.433H405.267C404.824 388.584 404.086 389.509 403.055 390.207C402.032 390.906 400.784 391.256 399.309 391.256C397.997 391.256 396.842 390.957 395.845 390.361C394.848 389.764 394.068 388.916 393.505 387.817C392.951 386.717 392.67 385.401 392.662 383.866V371.364H398.108V382.895C398.116 384.054 398.427 384.97 399.041 385.643C399.654 386.317 400.477 386.653 401.508 386.653C402.164 386.653 402.778 386.504 403.349 386.206C403.92 385.899 404.38 385.447 404.73 384.851C405.088 384.254 405.262 383.517 405.254 382.639ZM431.394 376.963L426.408 377.27C426.323 376.844 426.14 376.46 425.859 376.119C425.577 375.77 425.207 375.493 424.746 375.288C424.295 375.075 423.754 374.969 423.123 374.969C422.279 374.969 421.567 375.148 420.988 375.506C420.408 375.855 420.119 376.324 420.119 376.912C420.119 377.381 420.306 377.777 420.681 378.101C421.056 378.425 421.7 378.685 422.612 378.881L426.165 379.597C428.075 379.989 429.498 380.619 430.435 381.489C431.373 382.358 431.842 383.5 431.842 384.915C431.842 386.202 431.462 387.331 430.704 388.303C429.954 389.274 428.923 390.033 427.61 390.578C426.306 391.115 424.802 391.384 423.097 391.384C420.498 391.384 418.427 390.842 416.884 389.76C415.35 388.669 414.451 387.186 414.187 385.311L419.543 385.03C419.705 385.822 420.097 386.428 420.719 386.845C421.342 387.254 422.138 387.459 423.11 387.459C424.065 387.459 424.832 387.276 425.411 386.909C425.999 386.534 426.298 386.053 426.306 385.464C426.298 384.97 426.089 384.565 425.68 384.25C425.271 383.926 424.64 383.679 423.788 383.509L420.387 382.831C418.469 382.447 417.042 381.783 416.104 380.837C415.175 379.891 414.711 378.685 414.711 377.219C414.711 375.957 415.052 374.871 415.734 373.959C416.424 373.047 417.391 372.344 418.636 371.849C419.888 371.355 421.354 371.108 423.033 371.108C425.513 371.108 427.465 371.632 428.888 372.68C430.32 373.729 431.156 375.156 431.394 376.963ZM451.609 376.963L446.623 377.27C446.538 376.844 446.355 376.46 446.074 376.119C445.792 375.77 445.422 375.493 444.961 375.288C444.51 375.075 443.968 374.969 443.338 374.969C442.494 374.969 441.782 375.148 441.203 375.506C440.623 375.855 440.333 376.324 440.333 376.912C440.333 377.381 440.521 377.777 440.896 378.101C441.271 378.425 441.914 378.685 442.826 378.881L446.38 379.597C448.289 379.989 449.713 380.619 450.65 381.489C451.588 382.358 452.056 383.5 452.056 384.915C452.056 386.202 451.677 387.331 450.919 388.303C450.169 389.274 449.137 390.033 447.825 390.578C446.521 391.115 445.017 391.384 443.312 391.384C440.713 391.384 438.642 390.842 437.099 389.76C435.565 388.669 434.666 387.186 434.402 385.311L439.758 385.03C439.92 385.822 440.312 386.428 440.934 386.845C441.556 387.254 442.353 387.459 443.325 387.459C444.279 387.459 445.047 387.276 445.626 386.909C446.214 386.534 446.512 386.053 446.521 385.464C446.512 384.97 446.304 384.565 445.895 384.25C445.485 383.926 444.855 383.679 444.002 383.509L440.602 382.831C438.684 382.447 437.257 381.783 436.319 380.837C435.39 379.891 434.926 378.685 434.926 377.219C434.926 375.957 435.267 374.871 435.949 373.959C436.639 373.047 437.606 372.344 438.85 371.849C440.103 371.355 441.569 371.108 443.248 371.108C445.728 371.108 447.68 371.632 449.103 372.68C450.535 373.729 451.37 375.156 451.609 376.963ZM464.435 391.384C462.415 391.384 460.676 390.974 459.219 390.156C457.77 389.33 456.653 388.162 455.869 386.653C455.085 385.136 454.693 383.342 454.693 381.271C454.693 379.251 455.085 377.479 455.869 375.953C456.653 374.428 457.757 373.239 459.18 372.386C460.612 371.534 462.291 371.108 464.217 371.108C465.513 371.108 466.719 371.317 467.835 371.734C468.96 372.143 469.94 372.761 470.776 373.588C471.619 374.415 472.276 375.455 472.744 376.707C473.213 377.952 473.447 379.409 473.447 381.08V382.575H456.866V379.2H468.321C468.321 378.416 468.151 377.722 467.81 377.116C467.469 376.511 466.996 376.038 466.391 375.697C465.794 375.348 465.099 375.173 464.307 375.173C463.48 375.173 462.747 375.365 462.108 375.749C461.477 376.124 460.983 376.631 460.625 377.27C460.267 377.901 460.084 378.604 460.075 379.379V382.588C460.075 383.56 460.254 384.399 460.612 385.107C460.979 385.814 461.494 386.359 462.159 386.743C462.824 387.126 463.612 387.318 464.524 387.318C465.129 387.318 465.683 387.233 466.186 387.062C466.689 386.892 467.119 386.636 467.477 386.295C467.835 385.955 468.108 385.537 468.295 385.043L473.332 385.375C473.077 386.585 472.553 387.642 471.76 388.545C470.976 389.44 469.962 390.139 468.717 390.642C467.482 391.136 466.054 391.384 464.435 391.384ZM482.447 364.818V391H477.001V364.818H482.447ZM503.148 376.963L498.162 377.27C498.077 376.844 497.894 376.46 497.613 376.119C497.331 375.77 496.961 375.493 496.5 375.288C496.049 375.075 495.507 374.969 494.877 374.969C494.033 374.969 493.321 375.148 492.742 375.506C492.162 375.855 491.873 376.324 491.873 376.912C491.873 377.381 492.06 377.777 492.435 378.101C492.81 378.425 493.453 378.685 494.365 378.881L497.919 379.597C499.828 379.989 501.252 380.619 502.189 381.489C503.127 382.358 503.596 383.5 503.596 384.915C503.596 386.202 503.216 387.331 502.458 388.303C501.708 389.274 500.676 390.033 499.364 390.578C498.06 391.115 496.556 391.384 494.851 391.384C492.252 391.384 490.181 390.842 488.638 389.76C487.104 388.669 486.205 387.186 485.941 385.311L491.297 385.03C491.459 385.822 491.851 386.428 492.473 386.845C493.096 387.254 493.892 387.459 494.864 387.459C495.819 387.459 496.586 387.276 497.165 386.909C497.753 386.534 498.051 386.053 498.06 385.464C498.051 384.97 497.843 384.565 497.434 384.25C497.025 383.926 496.394 383.679 495.542 383.509L492.141 382.831C490.223 382.447 488.796 381.783 487.858 380.837C486.929 379.891 486.465 378.685 486.465 377.219C486.465 375.957 486.806 374.871 487.488 373.959C488.178 373.047 489.145 372.344 490.39 371.849C491.642 371.355 493.108 371.108 494.787 371.108C497.267 371.108 499.219 371.632 500.642 372.68C502.074 373.729 502.909 375.156 503.148 376.963Z" fill="black"/>
<line x1="409.066" y1="187.812" x2="382.066" y2="23.8122" stroke="#807F84" stroke-opacity="0.8" stroke-width="10"/>
<line x1="410.797" y1="190.839" x2="229.797" y2="39.8394" stroke="#807F84" stroke-opacity="0.8" stroke-width="10"/>
<line x1="411.621" y1="191.398" x2="252.621" y2="105.398" stroke="#807F84" stroke-opacity="0.8" stroke-width="10"/>
<line x1="412.626" y1="191.808" x2="174.626" y2="123.808" stroke="#807F84" stroke-opacity="0.8" stroke-width="10"/>
<line x1="410.405" y1="183.525" x2="556.37" y2="32.4918" stroke="#807F84" stroke-opacity="0.8" stroke-width="10"/>
<line x1="412.395" y1="182.265" x2="592.395" y2="121.265" stroke="#807F84" stroke-opacity="0.8" stroke-width="10"/>
<line x1="409.027" y1="187.518" x2="399.027" y2="91.518" stroke="#807F84" stroke-opacity="0.8" stroke-width="10"/>
<line x1="415.804" y1="191.663" x2="247.804" y2="256.663" stroke="#807F84" stroke-opacity="0.8" stroke-width="10"/>
<line x1="417.652" y1="190.415" x2="273.652" y2="344.415" stroke="#807F84" stroke-opacity="0.8" stroke-width="10"/>
<line x1="418.015" y1="189.98" x2="346.015" y2="286.98" stroke="#807F84" stroke-opacity="0.8" stroke-width="10"/>
<line x1="413.989" y1="187.324" x2="403.99" y2="341.324" stroke="#807F84" stroke-opacity="0.8" stroke-width="10"/>
<line x1="407.807" y1="183.758" x2="516.807" y2="311.758" stroke="#807F84" stroke-opacity="0.8" stroke-width="10"/>
<line x1="413.657" y1="185.283" x2="618.657" y2="257.283" stroke="#807F84" stroke-opacity="0.8" stroke-width="10"/>
<line x1="411.693" y1="185.787" x2="630.693" y2="325.787" stroke="#807F84" stroke-opacity="0.8" stroke-width="10"/>
<circle cx="385.5" cy="23.5" r="18.5" fill="#71EAD1" stroke="#0000B2" stroke-width="10"/>
<circle cx="593.5" cy="122.5" r="18.5" fill="#71EAD1" stroke="#0000B2" stroke-width="10"/>
<circle cx="246.5" cy="252.5" r="18.5" fill="#71EAD1" stroke="#0000B2" stroke-width="10"/>
<circle cx="229" cy="38" r="12" fill="#71EAD1" stroke="#0000B2" stroke-width="6"/>
<circle cx="404" cy="91" r="12" fill="#71EAD1" stroke="#0000B2" stroke-width="6"/>
<circle cx="404" cy="341" r="12" fill="#71EAD1" stroke="#0000B2" stroke-width="6"/>
<circle cx="517" cy="315" r="12" fill="#71EAD1" stroke="#0000B2" stroke-width="6"/>
<circle cx="176" cy="122" r="12" fill="#71EAD1" stroke="#0000B2" stroke-width="6"/>
<circle cx="560" cy="32" r="12" fill="#71EAD1" stroke="#0000B2" stroke-width="6"/>
<circle cx="617" cy="258" r="12" fill="#71EAD1" stroke="#0000B2" stroke-width="6"/>
<circle cx="255" cy="103" r="12" fill="#71EAD1" stroke="#0000B2" stroke-width="6"/>
<circle cx="630" cy="326" r="12" fill="#71EAD1" stroke="#0000B2" stroke-width="6"/>
<circle cx="270" cy="341" r="12" fill="#71EAD1" stroke="#0000B2" stroke-width="6"/>
<line x1="384.83" y1="170.866" x2="334.83" y2="129.866" stroke="#0000B2" stroke-width="10"/>
<line x1="542.71" y1="253.445" x2="410.71" y2="185.445" stroke="#0000B2" stroke-width="10"/>
<circle cx="321.5" cy="119.5" r="18.5" fill="#71EAD1" stroke="#0000B2" stroke-width="10"/>
<circle cx="534.5" cy="249.5" r="18.5" fill="#71EAD1" stroke="#0000B2" stroke-width="10"/>
<line x1="347.928" y1="281.098" x2="414.928" y2="187.098" stroke="#0000B2" stroke-width="10"/>
<line x1="444.361" y1="274.866" x2="409.361" y2="187.866" stroke="#0000B2" stroke-width="10"/>
<line x1="412.928" y1="190.098" x2="479.928" y2="96.0979" stroke="#0000B2" stroke-width="10"/>
<circle cx="345.5" cy="279.5" r="25.5" fill="#71EAD1" stroke="#0000B2" stroke-width="10"/>
<circle cx="485" cy="88" r="23" fill="#71EAD1" stroke="#0000B2" stroke-width="10"/>
<circle cx="443.5" cy="273.5" r="21.5" fill="#71EAD1" stroke="#0000B2" stroke-width="10"/>
<circle cx="412.5" cy="187.5" r="31.5" fill="#FEE318" stroke="#0000B2" stroke-width="10"/>
<path d="M47.9315 221.048C39.4835 221.048 32.0168 219.085 25.5315 215.16C19.1315 211.235 14.1395 205.773 10.5555 198.776C6.9715 191.779 5.1795 183.629 5.1795 174.328C5.1795 165.027 6.9715 156.92 10.5555 150.008C14.1395 143.011 19.1315 137.549 25.5315 133.624C32.0168 129.699 39.4835 127.736 47.9315 127.736C57.4035 127.736 65.5528 130.125 72.3795 134.904C79.2915 139.597 84.2408 146.083 87.2275 154.36L71.6115 160.12C69.7342 154.915 66.7475 150.861 62.6515 147.96C58.6408 145.059 53.7342 143.608 47.9315 143.608C42.6408 143.608 37.9902 144.845 33.9795 147.32C30.0542 149.795 27.0248 153.336 24.8915 157.944C22.8435 162.467 21.8195 167.928 21.8195 174.328C21.8195 180.728 22.8435 186.232 24.8915 190.84C27.0248 195.448 30.0542 198.989 33.9795 201.464C37.9902 203.939 42.6408 205.176 47.9315 205.176C53.7342 205.176 58.6408 203.725 62.6515 200.824C66.7475 197.923 69.7342 193.869 71.6115 188.664L87.2275 194.296C84.2408 202.573 79.2915 209.101 72.3795 213.88C65.5528 218.659 57.4035 221.048 47.9315 221.048ZM127.674 220.28C121.53 220.28 116.068 218.872 111.29 216.056C106.511 213.24 102.714 209.357 99.8975 204.408C97.1668 199.373 95.8015 193.699 95.8015 187.384C95.8015 180.984 97.1668 175.352 99.8975 170.488C102.628 165.539 106.383 161.656 111.162 158.84C116.026 156.024 121.53 154.616 127.674 154.616C133.732 154.616 139.151 156.024 143.93 158.84C148.708 161.656 152.463 165.539 155.194 170.488C157.924 175.352 159.29 180.984 159.29 187.384C159.29 193.699 157.924 199.331 155.194 204.28C152.463 209.229 148.708 213.155 143.93 216.056C139.151 218.872 133.732 220.28 127.674 220.28ZM127.674 206.328C130.916 206.328 133.69 205.56 135.994 204.024C138.383 202.488 140.175 200.312 141.37 197.496C142.65 194.68 143.29 191.309 143.29 187.384C143.29 183.373 142.65 180.003 141.37 177.272C140.175 174.456 138.383 172.323 135.994 170.872C133.69 169.336 130.916 168.568 127.674 168.568C124.346 168.568 121.487 169.336 119.098 170.872C116.708 172.323 114.874 174.456 113.594 177.272C112.314 180.003 111.674 183.373 111.674 187.384C111.674 191.309 112.314 194.68 113.594 197.496C114.874 200.312 116.708 202.488 119.098 204.024C121.487 205.56 124.346 206.328 127.674 206.328ZM171.996 219V155.896H187.996V172.28L184.54 174.968C185.137 170.957 186.161 167.629 187.612 164.984C189.062 162.339 190.769 160.291 192.732 158.84C194.78 157.304 196.87 156.237 199.004 155.64C201.222 154.957 203.398 154.616 205.532 154.616C208.86 154.616 212.017 155.256 215.004 156.536C217.99 157.731 220.593 159.821 222.812 162.808C225.03 165.795 226.566 169.891 227.42 175.096L217.948 178.552C219.228 172.579 221.062 167.843 223.452 164.344C225.926 160.845 228.742 158.371 231.9 156.92C235.142 155.384 238.556 154.616 242.14 154.616C247.516 154.616 251.868 155.811 255.196 158.2C258.524 160.589 260.956 163.661 262.492 167.416C264.113 171.085 264.924 175.011 264.924 179.192V219H249.052V183.032C249.052 179.875 248.625 177.229 247.772 175.096C247.004 172.877 245.852 171.213 244.316 170.104C242.78 168.995 240.774 168.44 238.3 168.44C235.74 168.44 233.564 169.123 231.771 170.488C229.98 171.853 228.614 173.901 227.676 176.632C226.822 179.363 226.396 182.861 226.396 187.128V219H210.524V182.776C210.524 177.997 209.628 174.413 207.836 172.024C206.129 169.635 203.612 168.44 200.284 168.44C197.638 168.44 195.377 169.123 193.5 170.488C191.708 171.853 190.342 173.901 189.404 176.632C188.465 179.363 187.996 182.861 187.996 187.128V219H171.996ZM279.871 219V155.896H295.871V172.28L292.415 174.968C293.012 170.957 294.036 167.629 295.487 164.984C296.937 162.339 298.644 160.291 300.607 158.84C302.655 157.304 304.745 156.237 306.879 155.64C309.097 154.957 311.273 154.616 313.407 154.616C316.735 154.616 319.892 155.256 322.879 156.536C325.865 157.731 328.468 159.821 330.687 162.808C332.905 165.795 334.441 169.891 335.295 175.096L325.823 178.552C327.103 172.579 328.937 167.843 331.327 164.344C333.801 160.845 336.617 158.371 339.775 156.92C343.017 155.384 346.431 154.616 350.015 154.616C355.391 154.616 359.743 155.811 363.071 158.2C366.399 160.589 368.831 163.661 370.367 167.416C371.988 171.085 372.799 175.011 372.799 179.192V219H356.927V183.032C356.927 179.875 356.5 177.229 355.647 175.096C354.879 172.877 353.727 171.213 352.191 170.104C350.655 168.995 348.649 168.44 346.175 168.44C343.615 168.44 341.439 169.123 339.646 170.488C337.855 171.853 336.489 173.901 335.551 176.632C334.697 179.363 334.271 182.861 334.271 187.128V219H318.399V182.776C318.399 177.997 317.503 174.413 315.711 172.024C314.004 169.635 311.487 168.44 308.159 168.44C305.513 168.44 303.252 169.123 301.375 170.488C299.583 171.853 298.217 173.901 297.279 176.632C296.34 179.363 295.871 182.861 295.871 187.128V219H279.871ZM454.246 219V155.896H470.246V170.232L467.686 170.488C468.795 166.648 470.416 163.576 472.55 161.272C474.683 158.968 477.158 157.304 479.974 156.28C482.79 155.171 485.691 154.616 488.678 154.616C495.846 154.616 501.435 156.664 505.446 160.76C509.542 164.771 511.59 170.445 511.59 177.784V219H495.59V183.672C495.59 178.381 494.651 174.541 492.774 172.152C490.896 169.677 487.952 168.44 483.942 168.44C480.87 168.44 478.31 169.165 476.262 170.616C474.299 171.981 472.806 174.157 471.782 177.144C470.758 180.131 470.246 184.013 470.246 188.792V219H454.246ZM548.384 220.28C543.69 220.28 539.594 219.597 536.096 218.232C532.597 216.867 529.61 215.16 527.135 213.112C524.746 211.064 522.826 209.101 521.376 207.224L532.256 197.752C533.706 200.141 535.754 202.36 538.4 204.408C541.13 206.371 544.501 207.352 548.512 207.352C551.669 207.352 554.101 206.755 555.808 205.56C557.6 204.28 558.496 202.701 558.496 200.824C558.496 199.288 557.941 198.051 556.832 197.112C555.722 196.088 554.229 195.277 552.352 194.68C550.474 193.997 548.384 193.357 546.08 192.76C543.69 192.077 541.216 191.309 538.656 190.456C536.096 189.603 533.749 188.493 531.616 187.128C529.482 185.677 527.733 183.843 526.368 181.624C525.088 179.405 524.448 176.632 524.448 173.304C524.448 167.757 526.624 163.277 530.976 159.864C535.328 156.365 541.088 154.616 548.256 154.616C553.29 154.616 557.856 155.64 561.952 157.688C566.048 159.651 569.29 162.509 571.68 166.264L561.824 174.072C560.288 171.597 558.24 169.763 555.68 168.568C553.205 167.288 550.56 166.648 547.744 166.648C545.269 166.648 543.221 167.117 541.6 168.056C540.064 168.995 539.296 170.275 539.296 171.896C539.296 173.005 539.637 173.944 540.32 174.712C541.088 175.48 542.282 176.163 543.904 176.76C545.61 177.272 547.829 177.869 550.56 178.552C553.12 179.149 555.765 179.875 558.496 180.728C561.226 181.581 563.786 182.733 566.176 184.184C568.565 185.635 570.485 187.555 571.936 189.944C573.386 192.333 574.112 195.363 574.112 199.032C574.112 203.213 573.045 206.925 570.912 210.168C568.778 213.325 565.792 215.8 561.952 217.592C558.112 219.384 553.589 220.28 548.384 220.28ZM620.889 219V129.784H637.401V165.496H675.929V129.784H692.441V219H675.929V180.728H637.401V219H620.889ZM731.143 220.28C726.023 220.28 721.713 219.256 718.215 217.208C714.801 215.16 712.241 212.259 710.535 208.504C708.913 204.749 708.103 200.355 708.103 195.32V155.896H723.975V191.352C723.975 194.253 724.316 196.856 724.999 199.16C725.681 201.379 726.876 203.171 728.583 204.536C730.375 205.816 732.807 206.456 735.879 206.456C739.633 206.456 742.449 205.389 744.327 203.256C746.289 201.123 747.612 198.179 748.295 194.424C749.063 190.584 749.447 186.104 749.447 180.984V155.896H765.319V219H749.447V205.304L751.623 206.584C749.745 211.448 746.972 214.947 743.303 217.08C739.633 219.213 735.58 220.28 731.143 220.28ZM815.041 220.28C811.883 220.28 808.811 219.683 805.825 218.488C802.923 217.208 800.363 215.117 798.145 212.216C795.926 209.229 794.262 205.261 793.153 200.312L796.993 202.104V219H781.121V129.784H796.993V172.92L793.665 173.944C794.433 169.592 795.841 166.008 797.889 163.192C800.022 160.291 802.582 158.157 805.569 156.792C808.555 155.341 811.713 154.616 815.041 154.616C819.99 154.616 824.513 155.939 828.609 158.584C832.705 161.144 835.947 164.856 838.337 169.72C840.726 174.584 841.921 180.472 841.921 187.384C841.921 193.613 840.854 199.245 838.721 204.28C836.587 209.229 833.473 213.155 829.377 216.056C825.366 218.872 820.587 220.28 815.041 220.28ZM810.689 205.688C813.846 205.688 816.534 204.963 818.753 203.512C821.057 201.976 822.849 199.843 824.129 197.112C825.409 194.381 826.049 191.139 826.049 187.384C826.049 183.629 825.409 180.429 824.129 177.784C822.849 175.053 821.057 172.963 818.753 171.512C816.534 169.976 813.846 169.208 810.689 169.208C807.617 169.208 804.929 169.976 802.625 171.512C800.406 172.963 798.657 175.053 797.377 177.784C796.182 180.515 795.585 183.715 795.585 187.384C795.585 191.053 796.182 194.253 797.377 196.984C798.657 199.715 800.406 201.848 802.625 203.384C804.929 204.92 807.617 205.688 810.689 205.688Z" fill="black"/>
</svg>
