<svg width="300" height="300" viewBox="0 0 300 300" fill="none" xmlns="http://www.w3.org/2000/svg">
<circle cx="150" cy="150" r="134" fill="white" stroke="#D83F7E" stroke-width="10"/>
<path fill-rule="evenodd" clip-rule="evenodd" d="M175.428 237.452C173.041 237.494 170.482 237.445 169.743 237.342C169.004 237.239 167.677 237.009 166.794 236.83C165.911 236.652 164.376 236.222 163.383 235.875C162.39 235.528 160.822 234.846 159.9 234.359C158.978 233.873 157.675 233.071 157.006 232.578C156.336 232.085 155.109 230.988 154.279 230.141C153.448 229.294 152.098 227.708 151.277 226.618C150.457 225.527 149.183 223.678 148.446 222.509C147.709 221.34 146.305 219.154 145.326 217.651C144.347 216.149 142.846 213.981 141.992 212.834C141.067 211.593 139.737 210.142 138.706 209.25C137.754 208.426 136.34 207.33 135.564 206.814C134.787 206.298 133.321 205.508 132.305 205.06C131.288 204.612 129.412 203.983 128.134 203.663C126.857 203.342 124.733 202.926 123.414 202.737C121.432 202.454 120.625 202.432 118.762 202.613C117.523 202.734 115.79 202.973 114.911 203.146C114.032 203.318 112.497 203.694 111.5 203.981C110.502 204.268 108.384 205.02 106.792 205.653C105.2 206.285 102.363 207.578 100.486 208.525C98.6104 209.472 95.7729 211.009 94.181 211.941C92.5892 212.873 89.8434 214.581 88.0793 215.737C86.3152 216.892 83.5242 218.802 81.8772 219.98C80.2301 221.159 77.3531 223.289 75.4837 224.713C73.6143 226.138 71.7642 227.466 71.3724 227.666C70.8425 227.936 70.5585 227.975 70.2645 227.818C70.047 227.701 69.7645 227.377 69.6369 227.097C69.4547 226.697 69.4733 226.444 69.7234 225.921C69.8996 225.553 70.8628 224.6 71.8781 223.791C72.8879 222.986 75.1864 221.23 76.9859 219.889C78.7853 218.548 81.5298 216.571 83.0846 215.496C84.6394 214.421 87.015 212.843 88.3635 211.988C89.7121 211.133 91.9165 209.791 93.2623 209.005C94.608 208.22 96.9468 206.945 98.4596 206.172C99.9724 205.4 102.224 204.327 103.462 203.787C104.701 203.247 106.934 202.387 108.424 201.874C109.914 201.362 112.064 200.705 113.201 200.414C114.981 199.959 115.856 199.871 119.506 199.781C122.785 199.7 124.194 199.75 125.734 200.002C126.828 200.182 128.769 200.666 130.047 201.079C131.326 201.493 133.104 202.144 133.998 202.527C134.892 202.909 136.048 203.529 136.567 203.904C137.085 204.278 138.335 205.21 139.344 205.973C140.353 206.736 141.836 208.107 142.64 209.02C143.444 209.932 144.597 211.353 145.203 212.179C145.808 213.004 147.053 214.874 147.969 216.333C148.885 217.792 150.46 220.302 151.471 221.909C153.054 224.429 153.693 225.218 156.099 227.627C158.034 229.566 159.333 230.68 160.337 231.264C161.133 231.726 162.498 232.4 163.37 232.761C164.242 233.122 165.717 233.6 166.647 233.822C167.577 234.044 169.454 234.337 170.818 234.474C172.318 234.624 174.496 234.672 176.327 234.596C177.993 234.527 180.38 234.319 181.631 234.134C182.881 233.949 185.486 233.396 187.419 232.906C189.352 232.416 192.123 231.583 193.578 231.055C195.032 230.528 197.426 229.551 198.898 228.885C200.37 228.219 202.669 227.048 204.007 226.283C205.344 225.519 207.369 224.258 208.506 223.483C209.643 222.708 211.597 221.264 212.848 220.273C214.098 219.283 216.43 217.162 218.029 215.559C219.629 213.957 221.683 211.716 222.595 210.579C223.508 209.442 224.867 207.626 225.615 206.543C226.364 205.46 227.541 203.624 228.231 202.462C228.921 201.301 230.032 199.257 230.701 197.921C231.37 196.584 232.399 194.365 232.988 192.989C233.577 191.614 234.319 190.178 234.636 189.798C235.193 189.131 235.234 189.118 235.883 189.386C236.252 189.539 236.639 189.888 236.743 190.163C236.883 190.531 236.802 191.051 236.435 192.146C236.161 192.962 235.565 194.474 235.11 195.506C234.656 196.538 233.798 198.352 233.204 199.537C232.61 200.722 231.425 202.854 230.571 204.275C229.716 205.696 228.46 207.649 227.779 208.616C227.098 209.582 225.834 211.256 224.971 212.336C224.107 213.416 222.282 215.452 220.915 216.86C219.548 218.269 217.546 220.185 216.466 221.119C215.385 222.053 213.508 223.553 212.293 224.451C211.078 225.35 208.983 226.753 207.637 227.569C206.291 228.386 203.966 229.666 202.471 230.414C200.975 231.162 198.465 232.29 196.893 232.921C195.321 233.552 192.965 234.395 191.657 234.794C190.35 235.193 188.117 235.786 186.696 236.112C185.274 236.437 183.135 236.855 181.941 237.039C180.654 237.238 178.001 237.406 175.428 237.452Z" fill="#1EAFD1"/>
<path fill-rule="evenodd" clip-rule="evenodd" d="M111.278 128.066C110.264 127.987 110.192 127.947 110.313 127.527C110.384 127.278 110.672 126.455 110.953 125.699C111.464 124.324 111.464 124.324 114.193 124.185C115.694 124.108 177.639 124.254 177.729 124.344C177.82 124.434 177.672 125.159 177.401 125.955C177.13 126.75 176.792 127.56 176.65 127.754C176.409 128.084 111.881 128.112 111.278 128.066Z" fill="#1EAFD1"/>
<path fill-rule="evenodd" clip-rule="evenodd" d="M170.452 137.202C127.925 137.208 113.096 137.183 110.062 137.15C107.028 137.118 104.511 137.057 104.469 137.015C104.427 136.973 104.656 136.254 104.977 135.416C105.561 133.894 105.561 133.894 109.485 133.762C111.642 133.689 171.438 133.763 171.518 133.842C171.597 133.922 171.39 134.71 171.057 135.594L170.452 137.202Z" fill="#FAB245"/>
<path fill-rule="evenodd" clip-rule="evenodd" d="M170.673 228.563C168.399 228.605 165.888 228.563 165.092 228.47C164.296 228.377 162.887 228.147 161.962 227.958C161.036 227.769 159.594 227.399 158.757 227.137C157.92 226.875 156.491 226.352 155.582 225.974C154.672 225.596 153.695 225.093 153.411 224.855C153.127 224.617 152.544 224.246 152.117 224.03C151.689 223.814 150.945 223.311 150.463 222.912C149.981 222.513 149.191 221.807 148.709 221.343C148.226 220.88 147.603 220.361 147.323 220.191C147.044 220.02 146.016 218.677 145.04 217.206C144.063 215.735 142.64 213.695 141.877 212.674C141.114 211.652 140.432 210.553 140.36 210.23C140.289 209.907 139.557 208.598 138.733 207.321C137.909 206.043 137.219 204.892 137.2 204.762C137.18 204.632 136.865 204.213 136.5 203.832C136.135 203.45 135.069 202.316 134.131 201.31C133.194 200.305 131.823 199.021 131.083 198.457C130.344 197.894 128.809 196.981 127.672 196.43C126.535 195.878 124.849 195.19 123.924 194.901C123 194.612 121.372 194.208 120.307 194.003C118.991 193.75 117.407 193.63 115.371 193.63C113.033 193.63 111.874 193.735 110.1 194.108C108.849 194.371 106.756 194.941 105.448 195.376C104.141 195.811 101.895 196.675 100.458 197.297C99.0207 197.92 96.4944 199.132 94.8438 199.991C93.1931 200.85 90.6477 202.271 89.1872 203.149C87.7267 204.026 85.1828 205.626 83.5341 206.704C81.8854 207.782 79.234 209.6 77.6421 210.744C76.0502 211.888 73.4919 213.806 71.9569 215.005C70.4218 216.204 68.5772 217.583 67.8576 218.068C66.8535 218.745 66.3552 218.95 65.7143 218.95C65.0199 218.95 64.744 218.815 64.0765 218.148C63.3811 217.453 63.2739 217.221 63.2739 216.412C63.2739 215.698 63.4338 215.242 63.9522 214.476C64.3252 213.924 146.867 107.33 148.377 105.431C149.887 103.533 151.361 101.822 151.653 101.631C151.945 101.44 152.55 101.283 152.998 101.283C153.445 101.283 154.054 101.443 154.352 101.638C154.649 101.832 155.061 102.368 155.267 102.828C155.538 103.433 155.594 103.831 155.468 104.268C155.373 104.6 154.902 105.449 154.422 106.155C153.941 106.86 86.4946 194.179 84.5484 196.744C82.6022 199.308 81.0631 201.46 81.1281 201.525C81.1932 201.59 82.9823 200.597 85.1041 199.319C87.2258 198.041 90.373 196.263 92.0978 195.369C93.8226 194.475 96.6249 193.148 98.3253 192.42C100.026 191.692 102.588 190.716 104.02 190.252C105.452 189.788 107.469 189.22 108.503 188.99C109.537 188.759 111.498 188.462 112.86 188.329C114.746 188.144 115.96 188.143 117.94 188.326C119.371 188.457 121.44 188.759 122.538 188.997C123.635 189.235 125.472 189.755 126.62 190.152C127.767 190.549 129.603 191.342 130.7 191.913C131.797 192.485 133.472 193.535 134.422 194.248C135.371 194.961 136.911 196.338 137.842 197.309C138.774 198.279 140.223 199.996 141.062 201.123C141.901 202.25 143.31 204.327 144.193 205.739C145.076 207.151 146.602 209.512 147.583 210.988C148.564 212.463 150.036 214.473 150.853 215.455C151.671 216.437 152.861 217.695 153.499 218.25C154.136 218.806 155.4 219.691 156.307 220.217C157.214 220.743 158.957 221.505 160.18 221.911C161.422 222.322 163.484 222.803 164.851 222.999C166.743 223.27 168.103 223.323 170.846 223.233C173.008 223.161 175.404 222.942 176.979 222.671C178.4 222.426 180.645 221.956 181.968 221.625C183.291 221.294 185.57 220.619 187.033 220.124C188.496 219.629 190.82 218.739 192.197 218.146C193.573 217.553 195.892 216.417 197.35 215.623C198.808 214.829 200.934 213.568 202.074 212.82C203.215 212.073 204.867 210.914 205.746 210.246C206.625 209.577 208.477 207.99 209.862 206.719C211.247 205.448 213.371 203.32 214.582 201.989C215.793 200.659 217.538 198.513 218.459 197.22C219.38 195.928 220.753 193.867 221.51 192.641C222.267 191.414 223.482 189.275 224.209 187.886C224.936 186.498 226.104 184.013 226.804 182.365C227.504 180.717 228.321 179.11 228.62 178.795C228.918 178.48 229.502 178.12 229.917 177.996C230.536 177.811 230.807 177.834 231.428 178.129C231.845 178.327 232.391 178.777 232.642 179.13C232.911 179.507 233.096 180.07 233.092 180.499C233.089 180.9 232.637 182.344 232.088 183.709C231.539 185.073 230.3 187.768 229.336 189.697C228.371 191.627 226.901 194.299 226.069 195.637C225.237 196.974 223.772 199.123 222.812 200.413C221.853 201.703 220.23 203.728 219.205 204.912C218.181 206.096 216.424 207.953 215.302 209.037C214.179 210.121 212.424 211.703 211.401 212.552C210.377 213.401 208.563 214.807 207.369 215.677C206.175 216.546 204.175 217.88 202.924 218.641C201.674 219.401 199.458 220.623 198 221.356C196.542 222.089 194.236 223.146 192.874 223.706C191.513 224.265 189.403 225.045 188.186 225.438C186.968 225.831 184.815 226.445 183.401 226.802C181.987 227.159 179.475 227.684 177.819 227.969C175.482 228.371 173.883 228.504 170.673 228.563Z" fill="#FAB245"/>
<path fill-rule="evenodd" clip-rule="evenodd" d="M100.969 66.6143C94.4933 88.0891 92.5616 94.4578 92.4987 94.6217C92.4187 94.8303 92.7298 95.0724 93.5359 95.4288C94.3104 95.7712 94.8243 96.1624 95.1054 96.6234C95.3353 97.0005 95.5234 97.6345 95.5234 98.0324C95.5234 98.4303 95.3422 99.053 95.1206 99.4163C94.899 99.7796 94.4614 100.245 94.1481 100.45C93.6717 100.762 93.1447 100.821 90.9264 100.814C89.4105 100.808 87.9896 100.699 87.6098 100.559C87.2444 100.423 86.678 100.018 86.3513 99.6573C85.8159 99.0668 85.7681 98.8978 85.8684 97.9488C85.9296 97.3695 86.6794 94.4772 87.5346 91.5214C88.3899 88.5656 90.2173 82.4267 91.5956 77.8794C92.9739 73.332 94.6777 67.8913 95.3818 65.7889C96.562 62.265 96.7173 61.9297 97.3698 61.4964C98.0775 61.0264 201.76 61.1369 202.389 61.7394C202.735 62.0708 203.123 62.6598 203.252 63.0484C203.393 63.4759 203.428 64.2054 203.342 64.896C203.213 65.9251 203.012 66.2837 201.289 68.5477C200.239 69.9286 126.757 164.433 125.577 165.918C124.396 167.404 123.175 168.782 122.864 168.98C122.552 169.179 121.925 169.341 121.47 169.341C121.004 169.34 120.383 169.168 120.045 168.946C119.716 168.729 119.262 168.26 119.037 167.905C118.732 167.423 118.656 167.043 118.741 166.414C118.806 165.929 119.166 165.119 119.587 164.511C119.991 163.929 195.434 66.9244 194.321 66.7898L100.969 66.6143Z" fill="#EB2A7F"/>
</svg>
