<svg width="336" height="374" viewBox="0 0 336 374" xmlns="http://www.w3.org/2000/svg">
<path d="M170.9 313.7C170.9 313.7 166.4 281.5 169.8 263.3L159.3 262.9C159.3 262.9 164.9 302.3 154.2 310.8L170.9 313.7Z"/>
<path d="M274.8 165.2C255.3 175.1 233.4 181.1 193 240.2H182.7L179.7 224.5C179.7 224.5 184.8 235.9 223.1 192.7C261.4 149.5 261.5 149.5 261.5 149.5L274.3 145.7L280.4 155.4L274.8 165.2Z"/>
<path d="M57 164.9C76.1 174.6 97.5 180.5 137.1 238.6H147.2L150.1 223.1C150.1 223.1 145.2 234.3 107.6 191.8C70 149.3 70 149.4 70 149.4L57.5 145.7L51.5 155.2L57 164.9Z"/>
<path d="M156.6 211.9L130.7 237.8C126.9 241.6 126.9 247.6 130.7 251.4L156.6 277.3C160.4 281.1 166.4 281.1 170.2 277.3L196.1 251.4C199.9 247.6 199.9 241.6 196.1 237.8L170.2 211.9C166.4 208.1 160.3 208.1 156.6 211.9Z"/>
<path d="M163.4 210.3V278.8C160.2 278.8 157 277.6 154.5 275.1L132.8 253.4C127.9 248.5 127.9 240.6 132.8 235.7L154.5 214C156.9 211.5 160.1 210.3 163.4 210.3Z"/>
<path d="M171.3 159.6C171.3 159.6 166.4 139.3 169.5 127.8L159 127.4C159 127.4 165.1 152.3 154.5 157.5L171.3 159.6Z"/>
<path d="M275.9 152.2C255 154.9 233.7 150.5 174.7 212.2L165.8 206L169.7 181.4C169.7 181.4 169.4 201 220.2 161.2C271 121.4 270.9 121.4 270.9 121.4L283.5 123.6L284.8 141.3L275.9 152.2Z"/>
<path d="M52.2 152.2C73.1 154.9 94.4 150.5 153.4 212.2L162.3 206L158.4 181.4C158.4 181.4 158.7 201 107.9 161.2C57.1 121.4 57.2 121.4 57.2 121.4L44.6001 123.6L43.3 141.3L52.2 152.2Z"/>
<path d="M285.3 221.4C263.2 221.6 240.3 228.3 180.6 180.6L170.8 187.3L173.7 208.8C173.7 208.8 174.4 191.3 226.4 220.5C278.4 249.6 278.4 249.6 278.4 249.6L291.9 246L294.2 230L285.3 221.4Z"/>
<path d="M51 220.7C72.7 220.9 95.2001 227.5 153.7 180.8L163.3 187.3L160.5 208.4C160.5 208.4 159.8 191.3 108.8 219.8C57.8 248.3 57.8 248.3 57.8 248.3L44.6001 244.8L42.3 229.1L51 220.7Z"/>
<path d="M36.6 246.4C64.1 259.9 88 258.2 145.1 328.8L166.6 340.1L170.8 320.4C170.8 320.4 163.7 334.6 109.5 280.7C55.3 226.8 55.3 226.7 55.3 226.7L37.2 222L28.5 234.1L36.6 246.4Z"/>
<path d="M297.2 246.4C268.1 259.9 242.8 258.2 182.3 328.8L159.5 340.1L155.1 320.4C155.1 320.4 162.6 334.6 220 280.7C277.4 226.8 277.3 226.7 277.3 226.7L296.4 222L305.6 234.1L297.2 246.4Z"/>
<path d="M287.4 205.1C263.3 190.9 236.3 182.4 186.5 97.9H173.7L170 120.4C170 120.4 176.2 104.1 223.6 165.9C271 227.7 270.9 227.6 270.9 227.6L286.7 233L294.3 219.2L287.4 205.1Z"/>
<path d="M47.1 205.1C69.9 190.9 95.5 182.4 142.8 97.9H154.9L158.4 120.4C158.4 120.4 152.5 104.1 107.6 165.9C62.7 227.7 62.7 227.6 62.7 227.6L47.7 233L40.5 219.2L47.1 205.1Z"/>
<path d="M291.4 127C267.3 116.1 240.3 109.6 190.5 44.9H177.7L174 62.1C174 62.1 180.2 49.6 227.6 96.9C275 144.2 274.9 144.2 274.9 144.2L290.7 148.3L298.3 137.7L291.4 127Z"/>
<path d="M41 127C65.1 116.1 92.1 109.6 141.9 44.9H154.7L158.4 62.1C158.4 62.1 152.2 49.6 104.8 96.9C57.4 144.2 57.5 144.2 57.5 144.2L41.7 148.3L34.1 137.7L41 127Z"/>
<path d="M29.4 199L3.50002 224.9C-0.299976 228.7 -0.299976 234.7 3.50002 238.5L29.4 264.4C33.2 268.2 39.2 268.2 43 264.4L68.9 238.5C72.7 234.7 72.7 228.7 68.9 224.9L43 199C39.3 195.2 33.2 195.2 29.4 199Z"/>
<path d="M36.2 197.4V265.9C33 265.9 29.8 264.7 27.3 262.2L5.60005 240.5C0.700049 235.6 0.700049 227.7 5.60005 222.8L27.3 201.1C29.8 198.6 33 197.4 36.2 197.4Z"/>
<path d="M37.9 112.6L12 138.5C8.20002 142.3 8.20002 148.3 12 152.1L37.9 178C41.7 181.8 47.7 181.8 51.5 178L77.4 152.1C81.2 148.3 81.2 142.3 77.4 138.5L51.5 112.6C47.8 108.8 41.7 108.8 37.9 112.6Z"/>
<path d="M44.7 111V179.5C41.5 179.5 38.3 178.3 35.8 175.8L14.1 154.1C9.20005 149.2 9.20005 141.3 14.1 136.4L35.8 114.7C38.3 112.2 41.5 111 44.7 111Z"/>
<path d="M157.2 150.8L131.3 176.7C127.5 180.5 127.5 186.5 131.3 190.3L157.2 216.2C161 220 167 220 170.8 216.2L196.7 190.3C200.5 186.5 200.5 180.5 196.7 176.7L170.8 150.8C167.1 147 161 147 157.2 150.8Z"/>
<path d="M164 149.2V217.7C160.8 217.7 157.6 216.5 155.1 214L133.4 192.3C128.5 187.4 128.5 179.5 133.4 174.6L155.1 152.9C157.6 150.4 160.8 149.2 164 149.2Z"/>
<path d="M157.2 305.2L131.4 331C127.6 334.8 127.6 340.8 131.4 344.6L157.3 370.5C161.1 374.3 167.1 374.3 170.9 370.5L196.8 344.6C200.6 340.8 200.6 334.8 196.8 331L170.9 305.1C167.1 301.4 161 301.4 157.2 305.2Z"/>
<path d="M164 303.6V372C160.8 372 157.6 370.8 155.1 368.3L133.4 346.6C128.5 341.7 128.5 333.8 133.4 328.9L155.1 307.2C157.6 304.8 160.8 303.6 164 303.6Z"/>
<path d="M277.6 112.6L251.7 138.5C247.9 142.3 247.9 148.3 251.7 152.1L277.6 178C281.4 181.8 287.4 181.8 291.2 178L317 152C320.8 148.2 320.8 142.2 317 138.4L291.1 112.5C287.4 108.8 281.3 108.8 277.6 112.6Z"/>
<path d="M284.3 111V179.5C287.5 179.5 290.7 178.3 293.2 175.8L314.9 154.1C319.8 149.2 319.8 141.3 314.9 136.4L293.2 114.7C290.8 112.2 287.6 111 284.3 111Z"/>
<path d="M332.4 224.9L306.6 199C302.8 195.2 296.8 195.2 293 199L267.1 224.9C263.3 228.7 263.3 234.7 267.1 238.5L293 264.4C296.8 268.2 302.8 268.2 306.6 264.4L332.5 238.5C336.2 234.7 336.2 228.6 332.4 224.9Z"/>
<path d="M300.7 197.4V265.9C303.9 265.9 307.1 264.7 309.6 262.2L331.3 240.5C336.2 235.6 336.2 227.7 331.3 222.8L309.6 201.1C307.1 198.6 303.9 197.4 300.7 197.4Z"/>
<path d="M157.7 71.3L131.8 97.2C128 101 128 107 131.8 110.8L157.7 136.7C161.5 140.5 167.5 140.5 171.3 136.7L197.2 110.8C201 107 201 101 197.2 97.2L171.3 71.3C167.6 67.5 161.5 67.5 157.7 71.3Z"/>
<path d="M164.5 69.7V138.2C161.3 138.2 158.1 137 155.6 134.5L134 112.8C129.1 107.9 129.1 100 134 95.1L155.7 73.4C158.1 70.9 161.3 69.7 164.5 69.7Z"/>
<path d="M157.2 3.80001L131.3 29.7C127.5 33.5 127.5 39.5 131.3 43.3L157.2 69.2C161 73 167 73 170.8 69.2L196.7 43.3C200.5 39.5 200.5 33.5 196.7 29.7L170.8 3.80001C167.1 1.21593e-05 161 1.21593e-05 157.2 3.80001Z"/>
<path d="M164 2.20001V70.7C160.8 70.7 157.6 69.5 155.1 67L133.4 45.3C128.5 40.4 128.5 32.5 133.4 27.6L155.1 5.90002C157.6 3.40002 160.8 2.20001 164 2.20001Z"/>
</svg>
