<svg width="300" height="300" viewBox="0 0 300 300" fill="none" xmlns="http://www.w3.org/2000/svg">
<circle cx="148" cy="150" r="104" fill="white" stroke="#D83F7E" stroke-width="4"/>
<path fill-rule="evenodd" clip-rule="evenodd" d="M171.571 220.746C169.64 220.78 167.57 220.74 166.972 220.657C166.374 220.573 165.301 220.387 164.586 220.242C163.872 220.098 162.63 219.75 161.827 219.468C161.023 219.187 159.755 218.635 159.009 218.241C158.263 217.846 157.209 217.197 156.668 216.798C156.126 216.398 155.133 215.51 154.462 214.824C153.79 214.137 152.697 212.853 152.033 211.97C151.37 211.086 150.339 209.588 149.743 208.641C149.146 207.694 148.011 205.923 147.219 204.706C146.427 203.489 145.213 201.733 144.521 200.804C143.773 199.799 142.697 198.623 141.864 197.901C141.094 197.233 139.95 196.345 139.321 195.927C138.693 195.509 137.507 194.87 136.685 194.507C135.863 194.144 134.345 193.634 133.311 193.375C132.278 193.115 130.559 192.778 129.492 192.625C127.889 192.395 127.236 192.378 125.729 192.525C124.726 192.622 123.324 192.816 122.614 192.956C121.903 193.095 120.661 193.4 119.854 193.632C119.047 193.865 117.333 194.474 116.045 194.987C114.757 195.499 112.462 196.546 110.944 197.313C109.426 198.081 107.131 199.326 105.843 200.081C104.555 200.836 102.334 202.219 100.907 203.155C99.4798 204.091 97.222 205.638 95.8895 206.593C94.5571 207.548 92.2296 209.273 90.7173 210.427C89.205 211.581 87.7083 212.657 87.3912 212.819C86.9626 213.038 86.7329 213.069 86.495 212.942C86.319 212.847 86.0905 212.585 85.9872 212.358C85.8399 212.034 85.8549 211.829 86.0572 211.405C86.1998 211.107 86.979 210.335 87.8004 209.68C88.6173 209.027 90.4768 207.605 91.9325 206.519C93.3883 205.433 95.6085 203.831 96.8663 202.961C98.1242 202.09 100.046 200.811 101.137 200.119C102.228 199.426 104.011 198.339 105.1 197.703C106.189 197.066 108.081 196.033 109.305 195.408C110.528 194.782 112.349 193.913 113.352 193.475C114.354 193.038 116.16 192.341 117.365 191.926C118.571 191.511 120.31 190.979 121.23 190.743C122.67 190.374 123.378 190.303 126.331 190.23C128.984 190.165 130.124 190.206 131.369 190.41C132.254 190.555 133.824 190.947 134.859 191.282C135.893 191.617 137.331 192.144 138.055 192.454C138.778 192.764 139.713 193.266 140.133 193.57C140.552 193.873 141.563 194.628 142.38 195.246C143.196 195.865 144.395 196.975 145.046 197.714C145.696 198.453 146.629 199.605 147.119 200.273C147.609 200.942 148.616 202.456 149.357 203.638C150.098 204.82 151.373 206.853 152.19 208.156C153.471 210.196 153.988 210.836 155.934 212.787C157.5 214.358 158.55 215.26 159.362 215.733C160.006 216.108 161.111 216.654 161.816 216.946C162.522 217.239 163.715 217.625 164.467 217.805C165.22 217.985 166.738 218.223 167.842 218.333C169.055 218.455 170.817 218.494 172.299 218.432C173.646 218.376 175.577 218.208 176.589 218.058C177.601 217.908 179.708 217.461 181.272 217.064C182.836 216.667 185.078 215.992 186.254 215.564C187.43 215.137 189.367 214.346 190.558 213.806C191.749 213.267 193.609 212.318 194.691 211.699C195.773 211.079 197.411 210.058 198.331 209.431C199.251 208.803 200.831 207.632 201.843 206.83C202.855 206.028 204.741 204.31 206.035 203.012C207.329 201.714 208.991 199.898 209.729 198.977C210.467 198.057 211.566 196.585 212.172 195.708C212.778 194.831 213.73 193.343 214.288 192.402C214.846 191.462 215.745 189.806 216.286 188.723C216.827 187.641 217.66 185.843 218.137 184.729C218.613 183.615 219.213 182.451 219.469 182.144C219.92 181.604 219.954 181.592 220.478 181.81C220.777 181.934 221.09 182.217 221.175 182.439C221.288 182.737 221.222 183.159 220.925 184.045C220.703 184.707 220.221 185.932 219.853 186.768C219.486 187.604 218.792 189.073 218.311 190.033C217.831 190.992 216.872 192.72 216.181 193.871C215.49 195.022 214.473 196.604 213.922 197.387C213.372 198.17 212.349 199.526 211.651 200.401C210.952 201.276 209.476 202.925 208.37 204.066C207.264 205.206 205.644 206.759 204.77 207.516C203.896 208.272 202.377 209.487 201.394 210.215C200.411 210.942 198.716 212.079 197.628 212.74C196.539 213.402 194.658 214.439 193.448 215.045C192.238 215.651 190.208 216.565 188.936 217.076C187.664 217.587 185.758 218.27 184.7 218.593C183.643 218.916 181.836 219.396 180.686 219.66C179.537 219.924 177.806 220.262 176.84 220.412C175.799 220.573 173.653 220.709 171.571 220.746Z" fill="#1EAFD1"/>
<path fill-rule="evenodd" clip-rule="evenodd" d="M119.675 132.137C118.854 132.074 118.796 132.041 118.893 131.701C118.951 131.499 119.185 130.832 119.412 130.22C119.825 129.106 119.825 129.106 122.033 128.993C123.247 128.931 173.36 129.049 173.433 129.122C173.506 129.195 173.386 129.782 173.167 130.427C172.948 131.071 172.675 131.727 172.56 131.884C172.365 132.152 120.162 132.174 119.675 132.137Z" fill="#1EAFD1"/>
<path fill-rule="evenodd" clip-rule="evenodd" d="M167.545 139.538C133.142 139.542 121.145 139.522 118.691 139.496C116.236 139.47 114.2 139.42 114.166 139.386C114.132 139.352 114.317 138.77 114.577 138.092C115.05 136.859 115.05 136.859 118.223 136.751C119.969 136.692 168.343 136.752 168.407 136.817C168.472 136.881 168.304 137.519 168.035 138.236L167.545 139.538Z" fill="#FAB245"/>
<path fill-rule="evenodd" clip-rule="evenodd" d="M167.725 213.545C165.885 213.579 163.853 213.545 163.209 213.47C162.565 213.395 161.426 213.208 160.677 213.055C159.928 212.902 158.762 212.603 158.085 212.391C157.408 212.178 156.251 211.754 155.516 211.448C154.78 211.142 153.989 210.734 153.759 210.542C153.53 210.349 153.058 210.048 152.712 209.873C152.366 209.698 151.764 209.291 151.374 208.967C150.984 208.644 150.346 208.073 149.955 207.697C149.565 207.322 149.061 206.901 148.835 206.763C148.609 206.625 147.777 205.537 146.987 204.345C146.197 203.154 145.046 201.502 144.428 200.674C143.811 199.847 143.259 198.956 143.202 198.695C143.144 198.433 142.552 197.373 141.885 196.338C141.219 195.303 140.661 194.37 140.645 194.265C140.629 194.16 140.374 193.821 140.079 193.512C139.783 193.203 138.921 192.283 138.163 191.469C137.404 190.655 136.295 189.615 135.697 189.158C135.099 188.702 133.857 187.962 132.937 187.515C132.017 187.069 130.653 186.511 129.905 186.277C129.157 186.043 127.84 185.716 126.978 185.55C125.914 185.345 124.633 185.248 122.986 185.248C121.094 185.248 120.156 185.333 118.721 185.635C117.709 185.848 116.016 186.31 114.958 186.662C113.9 187.014 112.084 187.715 110.921 188.219C109.758 188.723 107.715 189.704 106.379 190.4C105.044 191.097 102.985 192.248 101.803 192.959C100.622 193.669 98.5636 194.965 97.2298 195.838C95.896 196.711 93.7511 198.184 92.4633 199.111C91.1755 200.038 89.1058 201.591 87.864 202.563C86.6222 203.534 85.1299 204.651 84.5478 205.044C83.7355 205.592 83.3323 205.759 82.8138 205.759C82.252 205.759 82.0288 205.649 81.4889 205.109C80.9263 204.545 80.8396 204.358 80.8396 203.702C80.8396 203.124 80.9689 202.755 81.3883 202.134C81.6901 201.687 148.466 115.34 149.687 113.802C150.908 112.264 152.101 110.878 152.337 110.723C152.574 110.568 153.063 110.442 153.425 110.442C153.787 110.442 154.28 110.571 154.521 110.729C154.761 110.887 155.095 111.321 155.261 111.693C155.48 112.183 155.525 112.506 155.424 112.86C155.347 113.129 154.966 113.816 154.577 114.388C154.189 114.959 99.6249 185.693 98.0504 187.77C96.476 189.848 95.2308 191.59 95.2834 191.643C95.3361 191.696 96.7835 190.892 98.4999 189.856C100.216 188.821 102.762 187.381 104.158 186.656C105.553 185.932 107.82 184.857 109.196 184.267C110.571 183.678 112.644 182.888 113.803 182.512C114.961 182.135 116.593 181.675 117.429 181.489C118.266 181.302 119.852 181.061 120.954 180.953C122.48 180.804 123.462 180.803 125.064 180.951C126.222 181.057 127.896 181.302 128.783 181.495C129.671 181.687 131.157 182.108 132.086 182.43C133.014 182.752 134.499 183.394 135.387 183.857C136.274 184.32 137.629 185.171 138.397 185.748C139.166 186.326 140.411 187.442 141.165 188.228C141.918 189.014 143.09 190.404 143.769 191.317C144.448 192.23 145.588 193.913 146.302 195.057C147.017 196.2 148.251 198.113 149.045 199.308C149.838 200.503 151.029 202.132 151.69 202.927C152.352 203.723 153.315 204.742 153.83 205.192C154.346 205.642 155.368 206.358 156.102 206.784C156.836 207.21 158.246 207.828 159.236 208.157C160.241 208.49 161.909 208.879 163.014 209.038C164.545 209.258 165.645 209.301 167.864 209.227C169.613 209.17 171.552 208.992 172.826 208.772C173.975 208.574 175.792 208.193 176.862 207.925C177.932 207.657 179.776 207.11 180.959 206.709C182.143 206.309 184.023 205.588 185.137 205.107C186.25 204.626 188.126 203.707 189.306 203.063C190.485 202.42 192.205 201.398 193.128 200.793C194.05 200.188 195.387 199.249 196.098 198.707C196.809 198.165 198.308 196.88 199.428 195.85C200.548 194.821 202.266 193.097 203.246 192.019C204.226 190.942 205.637 189.203 206.382 188.156C207.127 187.109 208.238 185.44 208.851 184.446C209.463 183.453 210.446 181.72 211.034 180.595C211.623 179.47 212.568 177.458 213.134 176.122C213.7 174.787 214.361 173.486 214.603 173.23C214.844 172.975 215.316 172.684 215.652 172.583C216.152 172.433 216.372 172.452 216.875 172.691C217.212 172.851 217.653 173.216 217.857 173.502C218.074 173.807 218.224 174.264 218.221 174.611C218.218 174.936 217.852 176.106 217.408 177.211C216.964 178.316 215.962 180.499 215.182 182.062C214.401 183.625 213.212 185.79 212.539 186.873C211.866 187.956 210.681 189.698 209.904 190.743C209.128 191.788 207.815 193.427 206.986 194.387C206.157 195.346 204.736 196.85 203.828 197.728C202.92 198.607 201.5 199.888 200.672 200.576C199.844 201.263 198.377 202.402 197.411 203.107C196.445 203.811 194.827 204.891 193.815 205.508C192.803 206.124 191.011 207.114 189.831 207.708C188.652 208.301 186.786 209.158 185.685 209.611C184.584 210.064 182.877 210.695 181.892 211.014C180.907 211.333 179.165 211.83 178.021 212.119C176.877 212.408 174.845 212.833 173.505 213.064C171.615 213.39 170.321 213.498 167.725 213.545Z" fill="#FAB245"/>
<path fill-rule="evenodd" clip-rule="evenodd" d="M111.335 82.3581C106.096 99.7539 104.533 104.913 104.482 105.046C104.417 105.215 104.669 105.411 105.321 105.699C105.948 105.977 106.363 106.294 106.591 106.667C106.777 106.973 106.929 107.486 106.929 107.808C106.929 108.131 106.782 108.635 106.603 108.93C106.424 109.224 106.07 109.601 105.816 109.767C105.431 110.019 105.005 110.068 103.21 110.061C101.984 110.057 100.834 109.969 100.527 109.855C100.231 109.745 99.7731 109.417 99.5088 109.125C99.0757 108.646 99.037 108.509 99.1181 107.741C99.1677 107.271 99.7743 104.929 100.466 102.534C101.158 100.14 102.636 95.167 103.751 91.4834C104.866 87.7998 106.245 83.3925 106.814 81.6895C107.769 78.8349 107.895 78.5633 108.423 78.2123C108.995 77.8315 192.873 77.921 193.382 78.4091C193.662 78.6775 193.976 79.1547 194.08 79.4694C194.194 79.8158 194.223 80.4067 194.153 80.9661C194.049 81.7997 193.886 82.0903 192.492 83.9242C191.643 85.0428 132.197 161.596 131.242 162.8C130.287 164.003 129.299 165.119 129.047 165.28C128.795 165.441 128.288 165.572 127.92 165.572C127.542 165.572 127.04 165.432 126.767 165.252C126.5 165.077 126.133 164.697 125.951 164.409C125.704 164.018 125.643 163.711 125.711 163.201C125.764 162.808 126.056 162.152 126.396 161.66C126.723 161.188 187.755 82.6092 186.855 82.5002L111.335 82.3581Z" fill="#EB2A7F"/>
</svg>
