<svg id="Layer_1" data-name="Layer 1" xmlns="http://www.w3.org/2000/svg" viewBox="0 0 264.52 237.16"><defs><style>.cls-1{fill:#68b42e;}</style></defs><path class="cls-1" d="M77.14,86.06A14.57,14.57,0,0,1,76,89.5q-4.34,5.63-12.63,9.31a41.18,41.18,0,0,1-15.82,3.45q-11.85,0-18.24-8.68-5.61-7.9-5.61-20,0-14,5.49-31.25,6.63-21,16.45-27.42,2.41-1.67,7.4-1.66a26.43,26.43,0,0,1,13.65,3.95q4.2,2.43,5.61,5.1,1.9,3.45,1.91,10.85a73.71,73.71,0,0,1-1.53,12.62Q70.76,56,68.34,56c-1.1,0-2-.85-2.67-2.55a8.94,8.94,0,0,1-.9-3.83q0-3.45,2.17-11.73,2.16-8.43,2.17-12.25,0-4.22-5.36-6.76a19.79,19.79,0,0,0-8.93-2.17q-9.55,0-17.34,21.43a111.84,111.84,0,0,0-7.27,38.78Q30.21,98.3,46,98.3q14.16,0,27.3-10.07l2-3.7C76.55,84.7,77.14,85.21,77.14,86.06Z" transform="translate(-13.22 -13.23)"/><path class="cls-1" d="M99.46,64.76q0,3.18-4.46,17.73Q91.69,92.95,90.79,95q-2.55,5.61-6.12,5.61c-2.64,0-4.59-1.53-5.87-4.59a23.28,23.28,0,0,1-1.4-8c0-1.53.08-3.44.25-5.74s.43-5,.77-8.16.59-5.89.76-8.23.26-4.27.26-5.8A3.45,3.45,0,0,1,82,59.15c2.21,0,3.32.59,3.32,1.78-.18.68-.41,1.64-.71,2.87s-.66,2.79-1.08,4.66A98.92,98.92,0,0,0,81.1,88.23q0,8.53,3.82,8.54,1.78,0,4.34-6.37.12-.14,4.21-13,.63-2,1.4-4.85T96.53,66C97,64,97.63,63,98.32,63S99.46,63.57,99.46,64.76ZM89,30.19q0,4.73-3.18,4.72a4.71,4.71,0,0,1-3.57-1.66,5.27,5.27,0,0,1-1.54-3.7,4,4,0,0,1,1.34-2.67,3.77,3.77,0,0,1,2.62-1.41C87.56,25.47,89,27.05,89,30.19Z" transform="translate(-13.22 -13.23)"/><path class="cls-1" d="M98.83,37.72c.08-.94.16-2.19.25-3.77s.21-3.46.38-5.67L98.83,26a1.4,1.4,0,0,1,1.4-.89q1.65,0,5.1,2.3v2.67c-.17,1.11-.38,2.3-.64,3.58s-.55,2.68-.89,4.21l-1,3.95q-3.06,21.42-3.06,31.38c0,3.82,0,6.93.06,9.31s.11,4,.19,5q.51,7.79,3.57,7.78,5,0,11.23-26.53c.85-3.82,1.57-5.74,2.17-5.74.85,0,1.27.64,1.27,1.92q0,4.2-4.46,18-5.62,16.71-10.59,16.71-4.34,0-6.5-8.67A51.71,51.71,0,0,1,95.25,79q0-2.92.83-12.18t2.49-24.93Z" transform="translate(-13.22 -13.23)"/><path class="cls-1" d="M135.05,64.76q0,3.18-4.47,17.73-3.32,10.45-4.21,12.5-2.55,5.61-6.12,5.61c-2.64,0-4.59-1.53-5.87-4.59a23.28,23.28,0,0,1-1.4-8c0-1.53.09-3.44.26-5.74s.42-5,.76-8.16.6-5.89.77-8.23.25-4.27.25-5.8a3.49,3.49,0,0,1,2.55-.89c2.21,0,3.32.59,3.32,1.78-.17.68-.41,1.64-.7,2.87s-.66,2.79-1.09,4.66a99.66,99.66,0,0,0-2.42,19.77q0,8.53,3.83,8.54,1.78,0,4.33-6.37.14-.14,4.21-13c.43-1.36.89-3,1.41-4.85s1.06-4,1.65-6.51c.51-2,1.11-3.06,1.79-3.06S135.05,63.57,135.05,64.76ZM124.59,30.19c0,3.15-1.07,4.72-3.19,4.72a4.71,4.71,0,0,1-3.57-1.66,5.3,5.3,0,0,1-1.53-3.7,4,4,0,0,1,1.34-2.67,3.73,3.73,0,0,1,2.61-1.41C123.14,25.47,124.59,27.05,124.59,30.19Z" transform="translate(-13.22 -13.23)"/><path class="cls-1" d="M166.68,109.4a23.36,23.36,0,0,0-6.63-1,22.12,22.12,0,0,0-5.74.76c.42,3.41.74,6,.95,7.85s.32,2.91.32,3.25a41.76,41.76,0,0,1-3.83,18q-4.84,10.58-13.52,10.58a15.69,15.69,0,0,1-11-4.33,13.31,13.31,0,0,1-4.72-10.33q0-15.06,27-26.79a15,15,0,0,0-7.78-10.08q-3.33,2.94-5.23,2.94c-3,0-4.47-1.07-4.47-3.19s2.17-3.27,6.51-3.19q6.38-7.28,8.8-13.14,3.18-7.51,3.19-18.88,0-8.79-5.62-8.8c-2.38,0-4.63,1.41-6.76,4.21a17.61,17.61,0,0,0-3.18,7.4c-.43,2.55-.81,3.83-1.15,3.83q-1.53,0-1.53-2,0-3.45,2.55-9.57,3.44-8,8.29-8a10.27,10.27,0,0,1,8.42,3.77,14.56,14.56,0,0,1,3.06,9.5,52.4,52.4,0,0,1-11.48,33.16,27.3,27.3,0,0,1,6.38,4.47,27.24,27.24,0,0,1,3.95,6.76,47.73,47.73,0,0,1,9.69-1.15q4.61,0,4.6,2.42A1.73,1.73,0,0,1,166.68,109.4Zm-14.54,10.08a43.84,43.84,0,0,0-.26-4.85,37.38,37.38,0,0,0-.76-4.46q-8.55,1.9-16,9.31-7.65,7.9-7.65,16.32a10.13,10.13,0,0,0,2.42,6.95,8.41,8.41,0,0,0,6.64,2.75q8,0,12.24-9.57A41,41,0,0,0,152.14,119.48Z" transform="translate(-13.22 -13.23)"/><path class="cls-1" d="M194.23,64.5a81.86,81.86,0,0,1-1.92,8.55q-4.84,19.13-9.56,25.64c-2,2.46-4.21,3.7-6.76,3.7q-5.36,0-8.68-6a23.9,23.9,0,0,1-2.55-10.84q0-4,.39-8.29t1.27-9.19q2.42-13.89,7-13.9a7.64,7.64,0,0,1,5,1.91,5.82,5.82,0,0,1,2.3,4.6q0,9.43-5.49,21.17a76.49,76.49,0,0,1-5.35,9.82,8.59,8.59,0,0,0,2.16,5q2,2.67,4.34,2.67,6.12,0,13.78-29.08c1.27-4.84,2.08-7.27,2.42-7.27C193.67,63,194.23,63.48,194.23,64.5Zm-17-2.42q0-4.34-1.78-4.34c-.68,0-1.19.56-1.53,1.66A86.77,86.77,0,0,0,169.23,87q2.93-1.78,5.61-11.48Q177.26,67.06,177.26,62.08Z" transform="translate(-13.22 -13.23)"/><path class="cls-1" d="M230.32,64.89q0,3.57-4.46,17.34-6.12,18.49-9.82,18.5-4.72,0-6.51-9.06a69,69,0,0,1-.89-8q-.39-5.42-.77-14-.63,2.3-2.36,8.48t-4.27,16.52q-1.28,5.49-4,5.49-4,0-4.85-5.36l-.51-9.57a66.62,66.62,0,0,1,0-10.2l.38-4.72L191.16,68a14.75,14.75,0,0,1,.64-4.59,3.07,3.07,0,0,1,3.19-2c1.7,0,2.55.77,2.55,2.3a13.89,13.89,0,0,1-.89,3.32,15.1,15.1,0,0,0-.77,4.08v2.93q0,1.66-.12,4c-.09,1.53-.13,2.89-.13,4.08v2.8q0,9.19,2,9.19c.42,0,1-1.11,1.66-3.32A93.3,93.3,0,0,1,202,81q1.78-5.74,2.93-10.59a54.07,54.07,0,0,0,1.4-9.18c.26-3.57.85-5.7,1.79-6.38,4.33.25,6.5,1.62,6.5,4.08,0-1.87-.12-2.21-.38-1s-.6,4-1,8.29-.75,7.72-1,10.4-.32,4.61-.32,5.8q0,13.77,3.58,13.77,3.06,0,7.39-13.51c.85-2.64,1.64-5.25,2.36-7.85s1.38-5.21,2-7.84,1.28-4,2-4S230.32,63.61,230.32,64.89Z" transform="translate(-13.22 -13.23)"/><path class="cls-1" d="M67.69,192.49q0,6-6.76,9a28.42,28.42,0,0,1-12.12,2.55q-18.24,0-32.65-7.52-2.94-1.53-2.94-3.7A2,2,0,0,1,14.63,191,10,10,0,0,1,15.84,192l2.23,2.23c.43.43,3.27,1.28,8.55,2.55a85.43,85.43,0,0,0,20.53,2.68q13.79,0,13.78-7.91,0-4.59-3.57-6.12L28,172.84q-8.81-3.83-8.8-15.3t10.59-32.91q5.22-10.2,11.73-10.2,7.53,0,13.78,5.86,6.49,5.88,7,13.27.26,4.33.45,8.35c.12,2.68.19,5.34.19,8q0,7.65-2.81,7.65t-2.93-4.34a197.18,197.18,0,0,0-1.15-20.28,21.28,21.28,0,0,0-3.57-9.18q-3.45-5.23-7.78-5.23-6.25,0-12.88,16.58Q26,149.51,26,157.54a14.71,14.71,0,0,0,2.36,8,12.79,12.79,0,0,0,6.18,5.29l22.84,9.57Q67.68,184.84,67.69,192.49Z" transform="translate(-13.22 -13.23)"/><path class="cls-1" d="M95.11,166.34a91.82,91.82,0,0,1-2.3,21.17q-3.57,15.06-11.73,15.05A5.1,5.1,0,0,1,76.87,200q-2-3.18-2.81-3.44a117.81,117.81,0,0,0-1.85,13.71q-.57,7.33-.57,15.75a61.54,61.54,0,0,0,.51,9.44A24.78,24.78,0,0,0,73.81,241c0,.34-.6.51-1.79.51q-4.33,0-4.33-15.17,0-6.12.76-15t2.17-20.73q1.39-12,2-20.34t.51-13.33a1.81,1.81,0,0,1-.64-1.28q0-1.65,2-1.65Q77,154,77,157.54a18.86,18.86,0,0,1-.19,2.17,16.79,16.79,0,0,0-.2,2V163a5.62,5.62,0,0,1,.13,1.15v6q1.28-3.82,3.45-9,3.18-7.28,5-7.27,5.86,0,8.16,3.44Q95.11,160.09,95.11,166.34ZM87,156.65q-1.67,0-2.94,3.06l-2.8,7.39q-6.25,16.34-6,21.56c1.7.94,2.55,1.7,2.55,2.3a1.56,1.56,0,0,1-.57.95,1.64,1.64,0,0,0-.58,1.09,8,8,0,0,0,1.15,4.2,3.92,3.92,0,0,0,3.57,2.3q4.47,0,7.4-10.59A54.08,54.08,0,0,0,91,174.5V173a6.25,6.25,0,0,0,.12-1.15v-5.23Q91.15,156.65,87,156.65Z" transform="translate(-13.22 -13.23)"/><path class="cls-1" d="M123.55,200.78q-4,0-6.63-4.47c-.77-1.27-1.19-3.87-1.28-7.78q-.26-4.34,0-11.86l.26-10.2q0-3.06-6.25-6.25,0,3.18-3.06,13.64a8.35,8.35,0,0,1-.64,1.34,8.21,8.21,0,0,0-.64,1.34l-1.66-.51a41,41,0,0,1,1.53-8,34.76,34.76,0,0,0,1.66-9.06,16.33,16.33,0,0,0-1-4.34,16.12,16.12,0,0,1-1-4.46q0-6.37,3.19-6.38,2.55,0,2.68,4a7.93,7.93,0,0,1,.06,1.72c0,.64-.11,1.38-.19,2.23-.08,1-.15,1.87-.19,2.55s-.06,1.19-.06,1.53q0,1.27,5.35,4.08t5.49,6.51c0,1.45-.09,3.21-.26,5.29s-.42,4.53-.76,7.34-.6,5.12-.77,7.2-.25,3.85-.25,5.3q0,6,3.7,6,2.16,0,6.76-13.39,4.33-12.37,5.1-18.37c.25-1.95.85-2.93,1.78-2.93.68,0,1,.63,1,1.91q0,4.33-5,19.39Q126.87,200.78,123.55,200.78Z" transform="translate(-13.22 -13.23)"/><path class="cls-1" d="M154.29,164.55q0,3.19-4.46,17.73-3.33,10.47-4.21,12.5c-1.7,3.74-3.75,5.61-6.13,5.61-2.63,0-4.59-1.53-5.86-4.59a23,23,0,0,1-1.41-8c0-1.53.09-3.45.26-5.74s.43-5,.77-8.17.59-5.88.76-8.22.26-4.28.26-5.81a3.45,3.45,0,0,1,2.55-.89c2.21,0,3.31.6,3.31,1.79-.17.68-.4,1.64-.7,2.87s-.66,2.78-1.08,4.65A99,99,0,0,0,135.92,188q0,8.55,3.83,8.55c1.19,0,2.63-2.13,4.34-6.38q.12-.12,4.21-13c.42-1.36.89-3,1.4-4.85s1.06-4,1.66-6.5c.51-2,1.1-3.06,1.78-3.06S154.29,163.36,154.29,164.55ZM143.83,130c0,3.14-1.06,4.72-3.19,4.72a4.74,4.74,0,0,1-3.57-1.66,5.34,5.34,0,0,1-1.53-3.7,4,4,0,0,1,1.34-2.68,3.75,3.75,0,0,1,2.61-1.4Q143.82,125.27,143.83,130Z" transform="translate(-13.22 -13.23)"/><path class="cls-1" d="M190.39,164.68q0,3.57-4.47,17.35-6.12,18.5-9.82,18.49-4.72,0-6.51-9.05a71.26,71.26,0,0,1-.89-8q-.37-5.42-.76-14c-.43,1.53-1.21,4.36-2.36,8.48s-2.58,9.63-4.28,16.52c-.85,3.65-2.16,5.48-4,5.48-2.64,0-4.25-1.78-4.85-5.36l-.51-9.56a69.42,69.42,0,0,1,0-10.21l.39-4.72-1.15-2.42a14.25,14.25,0,0,1,.64-4.59,3.06,3.06,0,0,1,3.18-2c1.7,0,2.56.76,2.56,2.29a13.48,13.48,0,0,1-.9,3.32,15,15,0,0,0-.76,4.08v2.94c0,1.1,0,2.42-.13,3.95s-.13,2.89-.13,4.08v2.81q0,9.18,2,9.18c.43,0,1-1.1,1.66-3.31a93,93,0,0,1,2.68-9.7q1.78-5.73,2.93-10.59a53,53,0,0,0,1.41-9.18c.25-3.57.85-5.69,1.78-6.38q6.51.39,6.51,4.09,0-2.81-.39-1t-1,8.29q-.63,6.38-.95,10.39c-.22,2.68-.32,4.61-.32,5.8q0,13.78,3.57,13.78,3.06,0,7.4-13.52c.85-2.64,1.63-5.25,2.36-7.84s1.38-5.21,2-7.85,1.28-3.95,2.05-3.95S190.39,163.4,190.39,164.68Z" transform="translate(-13.22 -13.23)"/><path class="cls-1" d="M241.33,142.53c-11.49,3.73-2.8,35.87-5.59,53.25S204,212.51,204,212.51c-.49-.11,0,1.23.06,2.17s.07,1.91.07,2.93,0,2,.06,2.94.07,1.66.07,2.17q0,12.5-2.55,18.62-3.84,9-14.67,9a20.69,20.69,0,0,1-14.42-5.74A17.51,17.51,0,0,1,166.28,231q0-10.84,22.57-18.75A93.34,93.34,0,0,0,200,209.2c0-.77,0-1.73-.13-2.87s-.21-2.54-.38-4.15c-.26-3.06-.38-5.36-.38-6.89-.34.09-1.32,1.53-2.94,4.34s-3.1,4.08-4.72,4.08q-4.46,0-6.63-4.85a21.1,21.1,0,0,1-1.78-8.8q0-8.42,3.82-22.83,4-15,7.53-15,2.55,0,7,5.23,4.85,5.61,7.91,6.51-3.19,5.87-5,16.32-.64,4.08-1,7.59a59.69,59.69,0,0,0-.39,6.57c0,.94.07,2.55.19,4.85s.37,5.35.71,9.18q4.71-.51,8-.7s8.8-1,12.8-4.56c4.35-3.88,10.88-6.78,9.58-32.69-1.56-30.9,4.65-29.5,4.65-29.5m-38.38,72q-7.78,0-12.37,1.79a46.86,46.86,0,0,0-11.35,6.63q-6.63,5.35-6.64,10.71a12.92,12.92,0,0,0,5,10.21,15.85,15.85,0,0,0,10.84,4.21q15,0,15.05-23c0-.17,0-1.13-.13-2.87S200.63,216.42,200.46,213Zm1.79-46.68q0-8.29-6.76-8.29-1.28,0-4.47,11.86-3.71,13.4-3.7,22.45c0,5.44,1.07,8.16,3.19,8.16q3.57,0,7.78-13.26Q202.25,175,202.25,166.34Z" transform="translate(-13.22 -13.23)"/><path class="cls-1" d="M77.4,36.13s-4.79,2.59-.26,3.56S96.56,59.57,99.46,55.62c0,0,30-12.38,30.61-15.29,0,0,8-3.88,3.12-4.2S120,41.06,113,41.5s-19.65,1.57-23.22,0C86.6,40.1,77.4,36.13,77.4,36.13Z" transform="translate(-13.22 -13.23)"/><path class="cls-1" d="M156,25.47" transform="translate(-13.22 -13.23)"/><path class="cls-1" d="M249.62,134.71c0,3.14-1.07,4.72-3.19,4.72a4.74,4.74,0,0,1-3.57-1.66,5.34,5.34,0,0,1-1.53-3.7,4,4,0,0,1,1.34-2.68,3.75,3.75,0,0,1,2.61-1.4Q249.61,130,249.62,134.71Z" transform="translate(-13.22 -13.23)"/><path class="cls-1" d="M246.14,142.31s-4.24,21.85-.25,25.62,9.4.09,9.4.09,7.54-3-4.85-27.07" transform="translate(-13.22 -13.23)"/><path class="cls-1" d="M252,137.71s20.34,12.88,22.51,8.53,4.19-9.47,2.64-11-19.56-5.59-23.75-2.17" transform="translate(-13.22 -13.23)"/><path class="cls-1" d="M254.63,129.1s20.81-9.43,18.56-12.15-4.64-6.47-9.57-5.87-14.78,11.15-14.21,13Z" transform="translate(-13.22 -13.23)"/><path class="cls-1" d="M245.47,125s-4-15.08-12.49-17.43-9.3,3-9.3,3-1.81,4.94,15.74,16" transform="translate(-13.22 -13.23)"/><path class="cls-1" d="M237.91,131.76s-11.18-3.4-21.42-.78-.62,10.24-.62,10.24,5.76,4.86,22-2.87" transform="translate(-13.22 -13.23)"/></svg>